<?xml version="1.0" encoding="UTF-8"?><svg id="Layer_1" xmlns="http://www.w3.org/2000/svg" viewBox="0 0 1410 570"><defs><style>.cls-1{fill:#e2e2e2;}.cls-1,.cls-2,.cls-3,.cls-4,.cls-5,.cls-6{stroke:#000;stroke-linejoin:round;}.cls-2{fill-rule:evenodd;}.cls-2,.cls-4{fill:#6cb700;}.cls-3{fill:#e00000;}.cls-7{fill:#ff8e1d;stroke:#474747;stroke-miterlimit:10;}.cls-5{fill:#ff8b00;}.cls-6{fill:#ffda00;}</style></defs><g id="layer3"><path id="Provincia_di_Imperia" class="cls-2" d="m317.53,361.68l-.13,1.37-.61.67-.64,1.34-1.12,1.02-.38.61-.61.32-1.85.48-.96.48-1.95.32-.45,1.05-1.44.73-1.85.51-1.21.41-2.14,2.11-1.66,1.63-.89.93-.32,2.55.77.57v.96l-.64.73-.73.67-.99.8-1.18.29-1.02.64-2.81.19h-3.35l-2.52.57-1.56.7-1.15.61-1.05.61-1.31,1.15-.51.45.1.48,1.18.29-.13.32-.51.41-1.56.48-1.31.83-2.11.77-1.18.57-2.33.83-2.27.45-1.91,1.02-2.3.54-1.75.54-.45,1.5-.22,1.31-.8.64-.67.54-1.85.51-1.34.61-.51.51-2.65.13-.89.32-3.67.16-2.17.13-.51.57-.96.96-.86.8-.96,1.12-.83.32h-2.01l-.89-.64-.73-.26-1.95.06-.57.8-.51-.1-.83-.73-.89-.1-1.6.7-1.21.57-1.53.64-.89.93-2.27.26-1.91.64-.64.51-.89.26-.57.64-.41,1.5-.35.54-.67.54-.45.93-.38.77h-1.44l-1.31-.51-1.37-1.24-1.21-1.08-1.69-.29-.73-.77h-2.23l-1.37.73-2.23.41-1.88.77-1.5.99-2.42.77-1.18,1.56-.77.64-.54.22-.54.64-2.55-.16-.67.83-.22.89-.41,1.12-1.6.06-.61.57-.26.8-.29.8-1.37.26-.93-.57s-2.2-.32-2.39-.32-.38-.54-.38-.54l-1.63-.26-1.12-.83-2.68.16-.54.57-1.82.06-.38.64-1.02,1.06-.28.49s.63.5.68.54c.05.05.09.35.09.35l-.59.39-.54.99h-1.26l-2.39,2.41-1.02,1.71-.59.76-1.66.26-1.91-.06-1.21-.89-1.02-.51-1.02-.77-3.51-.32-1.72-.57-1.08-.38-2.17-.13-1.53-.26-1.79-1.15-2.3-.45-2.49-.38-1.6-.96-1.15-.06-1.02-.7h-5.49l-1.21.64-1.08.77-.96.83-.38,1.28-.19,1.28-.89,1.53-1.15-.13-.64-.7-1.21-.19-1.85-.51-1.66-.57-1.34-.57v-1.53l-.32-1.4-.57-1.85-2.42-3.19-.19-3.83-.77-1.6-.77-2.04-.57-2.04-.06-1.34-.57-1.98v-4.27l-.83-.32-1.15-.83-1.08-.96v-2.17l-.64-.38-.06-1.85v-1.85l.77-1.02.51-.64v-1.6l.51-.96.51-1.15,1.08-1.02,1.53-1.28,1.4-1.6,1.15-1.21,1.91-.96,1.66-.77,1.15-.32,1.72-.38.83-.57,2.62-.32,1.15-.51.64-.64.7-.13,1.4-.77.38-.19v-.64l-.64-.38-.06-1.66v-1.21l-.7-.57-.32-.57v-2.11l.64-.57,1.4-1.02.83-.89.13-1.02.77-.32-.19-2.3.83-.64v-1.72l-.77-.64-.96-1.02.32-1.72.7-.57h.77l.51-.7.77-.19.13-.51h.7l.45.64.57.32.38-1.53.32-.96,1.08-.77,1.21-.13.83-.7h2.87l1.08.83.45.26.57-1.02,2.11-.7,3.38-1.21.38-.64,1.34-.64,1.15-.83.26-1.08.77-.96.57-.19.57-.57,1.08.13.7.45h.7l1.08-1.66.38-.57-.77-.96v-2.23l1.02-.89.38-.89,1.28-1.21,1.47-1.72,1.02-.7-.77-1.21-.06-2.17-.64-.64-.19-2.04-.77-1.34-.19-3.64v-2.42l.7-.83h1.66l1.21-.57,1.15-.13,1.28-.83,1.53-.7.64-.51,1.08-.7.96-.77.57-.7.77-.06.57-.64.45-1.15.57-.7-.13-1.66.7-.57.06-.89.77-.77,1.08-.83,1.51-.05,2.32.07.45.43.63.47.2-.47.25-.81s.14-2.37.25-2.46.79-.79.79-.79c0,0,.8-1.55,1.06-2.19s1.02-.89,1.02-.89l1.48-.59,1.02-.65,1.94-.54.19-.51s1.56.06,1.63-.06c.06-.13.32-1.02.32-1.02h-1.05s-1.4-.03-1.53-.03h-1.56l-1.05.8-2.14.26-1.18-.45-.7-1.31-.32-1.5-1.02-1.53-1.24-2.11-1.05-1.31.16-3.19.77-.83,1.05-1.37-.06-2.87.06-1.47.73-1.05.57-.41,2.14-.06,1.85-.51.93-.86.29-1.47.8-.54,1.15-.45,1.63-.73.67-.51,2.14-.16,2.49.13,1.15.73,1.02.48.86.61,1.08.77.61.41.77.29.73.89,1.34.32,1.24.73.67.67,1.02.32,1.28.51.86.89.35.35,1.79.03.67.35,1.4.38,1.44.41.73.32h1.21l.7-.64.86-.32,1.69.1.73.64,1.6.29,1.15.32,1.53.19.96.73.86.13.64.73,1.15.51.86.32.26,1.37.45.99.1.86.83.16.51-.67,2.17-.19,1.18-.73h2.2l.99-.51,2.14-.06.45.57.89.03.73-.61.83-.06.77.57.61.96.41.89.86,1.28h.8l.7.67.93.03.64-.61.89-.22.61-.67h.8l.38.8.41.06.51-.77.7-.06.51-.51.54-.89.38-.99.51-.64.7-.61.99-.19.45-.48.41.1.67.86.38.64,1.18.26,1.88.19,1.12.67.96.38.77.67.73.51,1.21.54,1.44.06.7-.51.73-.86.8-1.5.03-.64.7-.71.77.11.25.83.65.68.02,3.97.05,1.44,1.44.25,1.2.07.09,2.19.64.83.26.64.32.32.32,2.42.45,1.15.32,3.13-.13,2.81-.64,1.21-.51,1.02-.64.7-.7.38-.34,1.35-.61,1.44-1.35.63-.29.47-.68.47-.52-.23-.5-.52-.07.54-.32.86-.65,1.35-.54,1.24-1.44.72-1.96.65-1.15.36-2.48.09-.77.47-.45,1.08-.11,1.29-1.02.34-.59,1.44-.83.61-.63.41.07.81.68.65.23,1.31.47.5.34.45,1.42.2.5.95.77.5.61.61.16.54.65.56.88.25.97.79.41.7.14,2.01.45.68.47.99.45.61.25,1.02.59.56.45.92.81.99.56.77,1.71.07,1.02-.47.9-.52,2.23-.16,1.99.41.79.68s1.11-.16,1.2-.16,1.2-.61,1.2-.61l1.11-.74,2.73-.11,2.05.14.45.88h1.06l.9-.83,1.69.02.72.61.9.36.92.95,1.35.52.61.92,1.17.34,1.96,1.56.65,1.38,1.02,2.05,1.06,1.15.54,1.08,1.15.95-.02,2.44-.11,2.71.23,2.23h1.4l1.42-.23.85.09h0Z"/></g><g id="layer4"><path id="Provincia_di_Savona" class="cls-2" d="m471.38,175.33h.21s-.22-.94-.22-.94l-.8-.16-.89-.54-1.02-.73s-.54-.67-.77-.67-1.28-.64-1.4-.77c-.13-.13-1.37-.89-1.37-.89l-.77-.67-1.6-.77-.83-.86-.67-1.31-.86-1.21-.96-1.44s.19-2.33.19-2.55-.8-2.2-.8-2.2l-.06-1.79-.64-.93s-.29-1.79-.35-1.91-.67-.61-.67-.61l-.67-.64.1-.41.93.26.99.7,1.4.13.73-.29,1.66-.45,1.6.13-.03-1.53-.89-.61v-.99h1.79l.64-.57h4.88l1.02-.8,4.37-.13,1.4-.99,1.21-.48,1.05-.86,1.12-.32.96-1.05.48-2.48s.32-.27.36-.63c.05-.36.23-1.58.23-1.58l-.68-.41-1.13-.36v-3.56s-.63.09-.63-.63-.09-4.29-.09-4.29l.81-1.31.18-.99-.86-.54-.09-1.53-.45-.41.05-1.71-.72-.68-.41-.99-.63-1.04-4.51-.23-3.16.41-.63.45-1.13.09-.63.54-.81.05-.36-.63-.59-.27-.18-.54h-.5v-.86l.68-.23.09-.5-1.13.09-1.35.27-.81.59-.36.09-.77.63-.68.81v.77h.72l.18.77.72.54-.14.36-.68.41-1.35-.09h-1.31l-.81-.81h-.68s-1.22-.45-1.4-.45-.36-.86-.36-.86l-.95-1.4-.59-1.4.09-1.31-.72-.15-.73.65-1.22.09-.72.68-.81.09-.59.63-.95.77-2.3-.27-.36-.5-.72-.14-.32-1.49-.41-.36-.18-.81-.59-.27-.99-.5-1.71-.14s-1.17.45-1.35.5c-.18.05-2.93.63-2.93.63l-3.61.54-4.15-.14-1.35-.72-1.85-.14-.32-.54-.99-.68-.5-1.17-1.08-.32-.45-1.31-.14-.95h-.86l-.54.59-.27.41s-1.13.68-1.31.68-.77.99-.95,1.13-.99,1.26-.99,1.26l-.45,1.13-.45,1.31-.41.9.14,3.74-.5-.18-.32-.72-1.17-.14-.86-.81-1.17-.54-1.67-.45-1.62-.99-1.62-.41.09-.68-.54-1.17-.27-.81-1.26.18-.77.54-1.94.63-.81.09-.5.9-.54,2.44v3.97l-.36.45-1.67.05-.9.68-.59.77.09,1.31.59.45.86.81-.05,1.22-.63.45-2.35.23s-.45.45-.59.63c-.14.18-1.67.09-1.67.09l-.54.59-.63.68-.68,1.35-.99.5-1.22.54-.36.59-1.08-.05-.81-1.17-.05-1.76-.9-1.76-.77-1.8-.45-1.76-1.44-.41-1.17-.54-.95-.72-2.62.14-.63.54-1.35-.14-1.31-1.49-.23-.81-1.04-2.08-.72-.72-1.35-1.04-.45-.86h-1.13l-.41.81-2.39-.32-1.85-.81-2.93-.81-2.21-.41-.05-1.31-.59-.54-.18-1.58-.45-.68-.95-.63-.5-.72-1.04-.68-.1-1.05-.61-.38-.03-.99-.61-.57h-.48l-.38.8-1.21.64-.96.86-.99.73-.61.96-1.53.93-1.95.13-1.08.73-.45,1.63-.45,1.95-.8,1.05-.45.99v2.27l.38.7.26,1.28.83.93.61,1.21-.67.67-.61.51-.32.86-.67.06-1.44.93-1.28.57-2.71.26-.16,2.71-.1,1.18-.61.29.1,1.31.57.61.48.61.8.7.89.26.77.67.64.77.03,2.27-.83.83.41.67,1.12.96.73.93.73,2.17.8,1.12s.64.86.73.99-.1,1.63-.1,1.63l-.45.38-.26.96h-.64l-.51.51-2.07,2.07-.16,3.76-1.05,1.24-.67.83-1.21,1.4-1.18.8-.77,1.24-1.6,1.02-1.12-.13-.51-.77-.77-.1-.54.64-2.01.89-1.34,1.05-.77,1.69-1.22,1.01-2.98.45-.18,3.52-.36.63-1.62,1.17-1.35,1.17.99,1.17.63,1.35.9.9.18,3.43-.72.81-.72,1.99-.81.99-.86.14-.5,1.31-.14,1.49-.5.72-.25,1.56-.91.09-.51-.79-2.12-.32-3.33.23-1.84.12-.21.54-.43.68.03,1.87s.57,1.31.7,1.5c.13.19.51.73.51.73l.26,2.49-.64.51-.61,1.02-.64.96-.16,2.84-.48.38-.89-.16-1.24-.89-1.44-.7-1.12-.38-.7-.38-.1-1.69-.54-.22-.41-.8-.41-.7-1.75.13-.35.67-.64.67-.03,1.02-.96,1.02-1.08.77-.22.99s-.8.48-.8.61.19,2.14.19,2.14l.48.51.26,2.39,3.45.19.51.32.64,1.24.7.86v2.39l1.18.13.96.86,1.21.26-.06.38-.51.67-.73.45-.13,1.91-.61.83-.73.77-.93.73-1.56.45-1.37.61-.54.48-.77.61-.77.64-.06,1.15,1.47.48.41.54.86.96,1.63,1.24.86.8-.06,1.95-.45.77-.67,1.37-1.31,1.12-1.44,1.37-.7,1.53.06,3.03.57,1.6.61,1.47.64,1.4,2.2.73,2.65.35s.35.35.48.41c.13.06.89.86.89.86l.7.7-.03,1.44-.51.35-.57,1.31.29,2.07.77,1.34.77,1.28.16,1.15-.41.7-1.15.13-.7.83-.7.8-1.37.54-.48,1.02-.96.35-.73,1.53-.73,1.34s-.29,4.59-.29,4.75-.7,1.21-.7,1.21l-.7.51-2.42.26-2.46.83-3.45-.26-.22-.54-.45-.51-.45-.54-.48-1.05-.54-.06-.99-.77-1.05-1.24-1.44-.41-1.91-.61-2.39.03s-.41.38-.51.61-1.79.77-1.79.77l-.99.51-1.12.7s-.77,1.05-.86,1.18-1.15,1.02-1.15,1.02l-.93.99-.99,1.05-1.08.48v.64l.06,1.28,3.06.51.41,1.98.8.45s.48.54.61.7c.13.16,3.32-.13,3.32-.13l.72.63.95.94-.46,1.88-1,.16-1.59.19-.07,1.35,1.3.39,1.29.53.57.57h.69s.71-.73.71-.73l.77.11.25.83.65.68.02,3.97.05,1.44,1.44.25,1.2.07.09,2.19.64.83.26.64.32.32.32,2.42.45,1.15.32,3.13-.13,2.81-.64,1.21-.51,1.02-.64.7-.7.38-.34,1.35-.61,1.44-1.35.63-.29.47-.68.47-.52-.23-.5-.52-.07.54-.32.86-.65,1.35-.54,1.24-1.44.72-1.96.65-1.15.36-2.48.09-.77.47-.45,1.08-.11,1.29-1.02.34-.59,1.44-.83.61-.63.41.07.81.68.65.23,1.31.47.5.34.45,1.42.2.5.95.77.5.61.61.16.54.65.56.88.25.97.79.41.7.14,2.01.45.68.47.99.45.61.25,1.02.59.56.45.92.81.99.56.77,1.71.07,1.02-.47.9-.52,2.23-.16,1.99.41.79.68s1.11-.16,1.2-.16,1.2-.61,1.2-.61l1.11-.74,2.73-.11,2.05.14.45.88h1.06l.9-.83,1.69.02.72.61.9.36.92.95,1.35.52.61.92,1.17.34,1.96,1.56.65,1.38,1.02,2.05,1.06,1.15.54,1.08,1.15.95-.02,2.44-.11,2.71.23,2.23h1.4l1.42-.23.86.07v-2.31s1.45-.77,1.45-.77l.79-.67,1.12-1.16h1.61l.89-.71,4.2-.09.71-.54h.71l.36-1.43-.8-.8-1.43-1.16-.8-.98v-.71l-.63-.89-.36-.8-.92-1.65-.04-3.06.65-.65.22-2.46.71-2.64s.45-.27.54-.45.45-1.34.45-1.34l1.21-1.43.36-.31.54-1.21.4-1.03h.49s.27-.58.45-.8.71-.71.71-.71l.58-.76.54-.45,1.92.04.94-.09.63-.63.22-.89-.58-.4-.04-1.21.76-.94.54-.36.04-1.07.54-.63,1.03-.67.89-.94.58-.71s1.12-.27,1.3-.45,1.3-.71,1.3-.71l1.07-.85.36-.63.67-.63.8-.18.49-.45.22-.98-.09-2.55-.54-.76-.38-1.76-.07-4.53.89-.89.2-4.62.54-.89.16-2.17s.78-1.14.74-1.25.54-2.05.54-2.05l.76-1.72,1.05-.92.36-.4.47-1.16.67-1.41.78-1.43.6-1.52,1.81-1.56.63-.74.45-1.3,1.18-1.32.54-.38.45-1.76.65-1.47,1.52-1.63,1.5-1.36,1.18-.42,1.36-1.43,1.5-.71.58-1.07,1.59-.45,1.7-.45.51-.56,1.34-.38,1.36-.54,1.7-.29,1.45-.6,1.3-.56.8-.47,1.59-.45.85-.63,1.25-1.07,2.41-.8,2.5-.76,1.99-.36.8-.4.51-.76.4-.63.71-.27.38-.45,1.54-.2,1.67-.65,3.95-.04,1.52-.22,1.59-.78.4-1.27.74-.38.94-.6.87-.78,1.14-.36.56-.65,1.09-.36s.4-1.32.33-1.41c-.07-.09-.65-.74-.69-.83s-1.61-.27-1.61-.27l-.67-.74-.11-1.34-.16-5.4.4-2.41,1.05-1.74.83-.96.16-1.03.63-.6,2.28-.85,1.54-.4.42-.69.71-.02.45.56.13,1.81s.4.09.45,0,.4-.63.4-.63l.22-.65-.54-.27s-.31-1.59-.31-1.67.54-.63.54-.63l.49-1.76.74-2.05.67-1.59.83-1.41.13-1.21-1.12-1.05s-1.72-.29-1.88-.38-.98-1.52-.98-1.52l-.18-2.03.22-2.88,1-.8.74-1.7,1.23-2.03.96-.76.54-.74,1.7-.58,1.88-1.45,1.34-.87,2.19-.58,1.43-.71,1.27-1.18.87-.18.63-.67s1.21-.98,1.21-1.07.13-2.37.13-2.37l-.69-.67-.04-.83.89-.85.56-.63,1.14-1.23,1.25-.98.42-.42.96-.47,2.3-.42,1.21-.4,1.65-.42,1.09-.71,1.47-.65,1.21-.71s1.03-1.36,1.05-1.45c.02-.09,1.27-.47,1.27-.47l.58-.6,2.41-.27,1.74-.58.4-1.56.38-.45.29-2.55.76-.54,1.56-.33,3.01-.09.74-.69,2.41-.47,1.41-.71.87-.56.36-.63,1.14-.38,1.36-.58,1.38-.89,1.53-.6,1.34-.69.63-.73.74-1.47,1.01-.21h0Zm-126.71,150.87l.11-1.94,1.27.02.29.54.4.31v.54h-1.03l-.29.58-.42.13-.33-.18h0Z"/></g><g id="layer5"><path id="Provincia_di_Genova" class="cls-2" d="m729.79,162.18l-.63.72s-.76.6-.85.69-1.05.47-1.05.47l-.71.49-.47.54v.49c0,.09.38.4.38.4l.29,1.47.89.58s.54.49.67.58.13,1.47.13,1.47l-.31,1.07-.92.09-.11.36s.22.27.54.54.85.94.85.94l.63.27,1.12.54.54.54.76-.13.63-.58.45-.36.49-.27.71.54.09.89.63.54-.04,3.93.71,1.25.71.63.49.58.98.36.58.58,1.07.89.71.27,1.16.76.54.67.18,1.16-.36.36-.58,1.47-.49,1.03-.36.45-.22.71-1.16.36-1.16.85-.71.85-.22,3.89-.54.36v.94l.67.58,1.43.31.67.8.89.27.36.54,1.25,1.16,1.12,1.03.76,1.38.27,1.88,1.34,1.43,1.03.36.85.94,1.34,1.07.71.09.85.85.98.54,1.21.71,1.07.36.45,1.34.67.8-.04,2.32.63,1.21.67.58s.67.54.8.71,1.16.31,1.34.49.27,1.07.27,1.07l1.16.18.58,2.32.18,4.56-.31,1.7h-.27l-.4-.8-.85-.04-.54-.63-.94-.18-.54-.58-.94-.18-2.14.09-.54.67-1.03-.04-2.1.4-.85.27-.31.45-.63.36-.22,1.83-.36.27-.36,1.34-.4.09-.18.71-.58.63-.31.85-.63.58.04.85.89.76.63.63-.22,2.37-.31.22-.54.54-.65.89-.87.71-.82.69-.82.83-.82.98-.37-.67-.49-.76-.54-.63-1.12-.18-.45-.54-.67-.67-.27-1.12-.36-.31-.04-1.21-.13-.94-.49-.49-.18-.4-.54-.4-.76-.58-.94-.85-1.47-.36-.36-.67-.4-.09-.49.94-.13.45-.67.4-.13.54-.49.85-.36.58h-.58l-.67-.54-.8-.27-.31-.4-1.07-.4-.49-.63-.8.04-.49-.67-1.74.13-.49.63-1.16-.18-.36-.45-.63-.58-.63-.71-.71-1.43-1.16-1.61-.4-1.16-.54-.89-.76-.63-1.21-.67-1.34-.4-.49-.67h-1.12l-.63.63-.45.85-1.43.18-.54.54-1.03-.09-.09-1.07-.18-.89-.22-1.43-.85-1.52-.58-.45-.94.09-.89.4h-1.3l-.63-.8.63-.8,1.88-.09.27-.18.09-.63v-1.79l-.31-.58-.22-.67-.67-.8-.78-.76-1.03-.78-1.47-1.5-.87-1.12-1.18-.42-1-1.12-1.38-1.27-1.12-.4-1.12-.54-.98-.67-.89-.31-.36-.98-.8-.04-.4-.58-1.65-.89-.94-.22-.78-.37h-.31s-.09.28-.09.28l.85.54,1.18.65.85.78.27.74-.58.42-.33-1.16-1.23-.38-.6-.49h-.76l-.22-1.21-.25-.13-.49-.02-2.68-.31-.18-.36-1.07-.36-.04-.27h1.21l.31-.49-.4-.71-.49-.36-.85-.4-.94-.45-.8-.76-1.07-.4-.8-.54-.49-.31-1.12-.36-.58-.31-1.16-.36-.63-.58-1.34-.27-.49-.4-1.21-.36-1.38-.67-.36-.49-.49-.49-.89-.27-.71-.54-1.56-.49-.54-.4-1.16-.13-.85-.45-2.05-1.03-.89-.27-.71-.85-1.25-.45-.31-.76-.4-.49-1.74-.13-.63.71-.31.85-.45,1.03-.04,2.77-.45.58h-.8l-.98-.85-.85.09-.58.8-.13,1.83.45.63.71,1.56-.4,2.59-.4,1.3-.13,1.7-.49.36-1.12.04.13.71.54.58.8.71.58.54.27.8.94.89-.22.8-1.07-.18-.54-.45-1.3-.36-.54-.36-.94-.22-.85-.71-1.65-.98-1.3-.45-1.88-.63-2.59-.09-.18-.45-.63-.58-1.12-.45-.85-.54-1.38-.45-.85-.13-1.46-.06-.82-.38-.51-.88-.25-.88-.82-.44v-1.2l.38-.63.38-1.26.69-.82.44-.63.44-3.54-.25-3.22-.25-.63-1.01-.44-.63-.44-.06-1.2-.69-.44-1.01-.63-.13-1.26-1.83-.32-2.65-.19-.69-.38-.69-.82h-.88l-1.52-.95-.95-.32-1.96-.44-.44-.82-.76-.32h-2.46l-1.71-.51-2.02-.82-1.2-.44-1.33-.44-1.79-.99-2.32.18-.89-.54-3.31-.36-1.43-.45-3.31-.36-1.16-.36-3.39-.18-.89-.63-2.5-.36-1.88-.54-1.56-.71-1.3-.78-.58-.63-1.79-.07-1,.54-2.17.36-2.5-.16-.38-.54-2.79-.13-.87-.2-1.38-1.05-1.59-.07-.78-.36-.85.49-.38-.54-.85-.27.09-.62-.54-.66-.22-1.64-.06-3.06-.32-.54-.32-.6-.95-.41-.51-.44-.54-.09-.73.6-.85.06-.6.63-1.04.16v2.15s.16.57.32.57,2.05.22,2.18.22.54.51.54.51l-.09,1.04-.35.32-.09,1.04-.88-.06-.44-.51-1.8-.32-1.39-.66-2.87-.16-.79-.47-2.16.02-1.66-.24-.38-.51h-1.96l-1.29-.19-1.93-.73-.57-.51-2.12-.09-.54-.51-1.42-.28-1.23-.51-1.83-.19-.57-.44-1.55-.19-.44-.35-.57-.16-1.01-.38-.28-.73.57-.51.57-.03.28.73.54.03,1.11-.06,1.64.19.92.18.85.18.63-.31.8-.31.98-.4.71-.27-.58-.63-.89-.4-1.16-.31-.98-.54h-4.56l-.76-.67-2.1-.18-.85.49-.35,1.19h-.94l-.65-.32-.56-.78-.67-.31-.71-.54-1.83.09-1.52.18-1.34-.49-1.12-.54-1.52.04-.09.36.76.67h2.1l.94.45h1.38l.8.76v.27l-.54.31-.58,1.12-1.79-.09-.45-.76h-1.97l-.85-.31-1.3-.58-.63-.76-1.07-.31-1.12-.71-1.3-.31-2.32.13-2.5.04-.63.71-1.07.18-.36.36-1.25.27-.36.27-.71.36-.63.54-.89.36-.71.54h-.63l-.71.71h-1.52l-.63.36-.98.36-.63.63-.45.89h-.98l-.98.36-.36.8h-.98l-.45.54-.45.8-.45.8-.63.09.27,1.34.45.36-.09.45-.54.54-1.25,1.43-1.43.09-1.97.45-4.2.09-1.64.99-2.21.79-.75.85-1.23.28-.64,1.32-.3,1.32-.11-.07-.22-.96-.8-.16-.89-.54-1.02-.73s-.54-.67-.77-.67-1.28-.64-1.4-.77c-.13-.13-1.37-.89-1.37-.89l-.77-.67-1.6-.77-.83-.86-.67-1.31-.86-1.21-.96-1.44s.19-2.33.19-2.55-.8-2.2-.8-2.2l-.06-1.79-.64-.93s-.29-1.79-.35-1.91-.67-.61-.67-.61l-.67-.64.1-.41.93.26.99.7,1.4.13.73-.29,1.66-.45,1.6.13-.03-1.53-.89-.61v-.99h1.79l.64-.57h4.88l1.02-.8,4.37-.13,1.4-.99,1.21-.48,1.05-.86,1.12-.32.96-1.05.48-2.48s.32-.27.36-.63c.05-.36.23-1.58.23-1.58l-.68-.41-1.13-.36v-3.56s-.63.09-.63-.63-.09-4.29-.09-4.29l.81-1.31.18-.99-.86-.54-.09-1.53-.45-.41.05-1.71-.72-.68-.41-.99-.63-1.04-4.51-.23-3.16.41-.63.45-1.13.09-.63.54-.81.05-.36-.63-.59-.27-.18-.54h-.5v-.86l.68-.23.09-.5-1.13.09-1.35.27-.81.59-.36.09-.77.63-.68.81v.77h.72l.18.77.72.54-.14.36-.68.41-1.35-.09h-1.31l-.81-.81h-.68s-1.22-.45-1.4-.45-.36-.86-.36-.86l-.95-1.4-.59-1.4.09-1.31-.74-.17-.18-.89-.32-.59.09-3.04.03-1.16,1.16-.8.71.18.89.36.89-.09.8-1.07,1.07-.98.18-2.05s.09-.89.45-1.07.71-.89,1.43-.89,2.41-.18,2.41-.18l.63.89.54-1.07.45-1.34.8-.71.54-.71-.54-.71-.98-.36-.36-1.07-1.25-.98-1.61-.54-1.16-.98.27-2.5,1.16-.54v-1.79l1.25-.89h1.79l.45.54,1.07-.18.63-1.88.71-1.07.29-.42-.57-.79v-2.05l.47-.73.69-.44.35-.28.19.44.28.95.47.73.73.6.85.16,1.77.09.35.51.98-.03.25-.54,4.77-.03.6.76h.73l.19-.79.44-.6,1.61.03.66.47,1.14.41.32.63.35,1.17h1.52l1.01-1.01.25-1.26.25-.88.88.76.63.25,1.14.76h1.14l1.01-.76h3.03l2.4.25.13.63.63.38v1.14l.76.88,1.01.76.51.38.38.76.88.51.25,2.4.76.76.13.88.63.88-.88.88v.76l.76.13,1.39.76h1.39v3.16l.76,1.14.13,1.01.92.26.1.97-.67.38-.29,1.67-.47.38-.29.92-.45.22.07.96.58.29.83.07.09-1.43s.67-.54.71-.65.67-1.07.67-1.07l.8.25.42.98.74.69.69.96.13,1.45-.63.63v1.16l.8.8-.18,2.32.71.27.36.98.45.89v1.07l-.63.27-.27,1.79-1.16.36-.09,1.79.36.63.27.63,2.86.45,2.68-.54.45-1.34.71-1.97.45-.98.8-.71h.54l.27-4.11-.89-.98-.27-2.95.71-2.32.45-1.7.8-.89,1.34-1.34,1.07-.8,1.97-.71,2.59.27.63-.89.71-.89.98-.45.09-.71-.98-.71-.71-.89-1.16-.98.09-2.95.8-.71.71-1.34h5.09l.71.36h2.95c.36,0,1.97-.18,1.97-.18l.54-.54h.18l.27-1.16,1.02-.36.47.39s.82.89.86.96.94,1.21.94,1.21l.76.63v1.14l1.26,1.39,1.14.38,1.01.63h.63l.25-.73.95-1.47,1.28-.06,2.3-.28,1.7-1.25,1.16-.36.71-.8.71-1.7v-1.88l-1.16-.71-.89-1.25-1.25-1.7v-2.23l-.71-1.07s0-3.48.09-3.84-.36-1.43-.36-1.43l-.98-1.61-.71-1.34.09-1.61.71-.45.71-.18v-1.16l-.89-.63-.18-2.41-.8-.8-1.43-1.07-.89-.36-.63-.63-.54-1.16-1.07-.18-1.16-1.07.09-2.5h1.79l.54-1.07h1.97l1.34-.63,1.43-.89.8-.54.36-.8.63-.54.71-1.34.18-.89.63-.63.71-1.07.18-1.79.89-1.79.45-1.61.71-1.25,1.25-.89h2.59l.54.54,3.31.18.89-.54,2.41-.27.54.63.45,1.52.71,2.14,1.25,1.16,1.25.36,2.68-.18.45-.63.54-.18.54,1.25.54.71.4.05.6-.84s.55-.98.63-1.03c.08-.05,1.23-1.25,1.23-1.25l3.22-.28,1.03.88,1.12,1.59,1.17.54.25,2.74.54.27v2.23l.89.09,1.88.09.36.45v.71l-.8.27-.71.45.36.8h1.16l1.16.36.27.98.63,2.32.36.45.45.89.45.8-.09,4.29v.63l.45.54.27.98h.27l.63-1.61.45-1.25,4.56-.54.8-.89,2.77.27,1.48.69.32,1.39,1.04,1.26,1.2.98,1.55.63,1.99.28.6,1.99-.82,2.05-.82,1.14v2.68l1.61,2.18,1.26,1.77.38,1.14,1.39.63,2.91,1.39,1.89.51,3.54.51,3.41-.51,1.52-1.64,1.52-.25.38-1.26,1.39-1.52,1.01-.76,2.02-1.26,1.14-.25.63-.51,3.41-.25,1.64-.51,1.39-1.77-.13-3.66-1.01-.88-.25-2.53h1.89l2.4-.76,2.65-1.01,1.39-.38h5.05l1.01,1.01,1.52,1.26,1.01.63v1.52l-1.14.25-1.01.88-.25,1.01-1.26.51-.25,1.52,1.14.25,3.28.13,3.03.76,1.01.51h3.03l.76-.76.38-1.77.51-2.53.76-1.14.63.25,1.26.38,1.77.38,1.52,1.01v1.39l.76,1.52,1.39.63,1.26,1.26.88.76,1.64,1.14,1.52,1.77,1.52,1.52,1.17,1.52.6.57.79-.6,1.04-1.04.73-.82.51-.44,1.86-.25.92-.82,1.64.57,1.48,1.11,1.64,2.08,1.26.28.69-3.06,1.2-3.28,1.13.32.36,1.34,1.88.27.89-1.61.8-4.47,1.07-.09.89,1.07,1.43.98,1.07.45.54,1.16.27,2.41-1.34.63v2.5l.98,1.52,1.16.54,1.34.27,1.43.98,1.52.98.63,1.16,1.43.36,3.13.63,3.39-1.25h1.52l1.16,1.07,1.16.45,1.7.71,1.52,1.34,1.16.71-.36.45-.36.98v1.43l-.89.36.18,2.32.89.45,1.52.8.89.54.27,1.7.71.45.09,1.07.45.36.36,1.88-.27,2.68-.98.63.27,2.95-.89.71v.8l-.54,1.25-.71.63-.18,3.13.36,2.86.18,2.14.71.27v1.25l-.98-.36-.98.63-1.16.98-2.41.09-.98-.89-1.16-1.25-1.16.27-.18,1.07v.63l.04,3.62-.89,3.17-1.3,2.5-.45.8-.31,3.48-.8,2.68-2.95.94-.76,1.52-.58,1.43-.67.8-.45.71-.09,1.88.18,2.28.71.94.49.45s.8-.58.98-.67,1.65-.49,1.83-.58,1.34-.89,1.34-.89l1.83-1.12.31-.49,2.28-.09h.67l.4.8v.98l-.8.36-.18,2.1.18.67.22.4.98.54.94.53h0Zm-205.18-3.88l-.71-.58-.4.04-.71.89-.09.63-.58.04-.54.8-.67.63h-2.23l-1.38.04-.8-.8h-1.88l-.8-.67h-.98l-.22.31.85.27.67.54,1.34.22.94.09.54.4,1.03.04,1.38.09.39.24,1.45-.06.75-.63.49-1.03.76.04.27-1.21,1.16-.36h0Zm2.41,2.21l1.17.03,1.17.63,1.48.19,1.39.54,1.39.41,1.8.51,1.48.41,1.07.28,2.31.51,1.33.6,1.58.51.95.25-.19.22h-1.23l-2.02-.6-1.42-.57-1.99-.63-1.36-.25s-1.52-.35-1.64-.41c-.13-.06-1.26-.69-1.26-.69l-2.18-.35-1.36-.66h-2.31l-.16-.92h0Zm20.99,5.38l2.05.27,2.18.49,2.68.46,1.86.77-.05.58s-.49,0-.71-.16-1.93-.71-1.93-.71l-1.86-.51-1.89-.55-2.29-.33-.05-.32h0Z"/></g><g id="layer6"><path id="Provincia_di_La_Spezia" class="cls-2" d="m729.78,162.16l.64-1.45.47-1.55.38-1.36.47-.47.82-.13.38-.57,1.14-.13.41-.63,1.48-.03.73-.69h3.63l.63-.54,3.47-.09.88-.79,1.71-.06.63.98.44.63,2.12-.13.19-.66.63-.66.82-.06-.03-.76.57-.66.16-1.64.85-.66.41-.6,1.64.19.73.6,1.42.09.41.51,1.99.32.44,1.39.76.85.44,1.14h.44l.54-.92.6-.57.92-.03.41-.76.69-.57.22-.82h.54l.13-.79h1.11l.73.47.63.44.35,2.18.25.35,2.16,1.98,1.61.89.63.18,1.97,1.61,1.07.18,1.34,1.52,1.07.63,4.47.18.18,1.16,1.07,1.52,1.25,1.43.54,1.52-.18,3.04.71.45.09,3.57,1.16.8.13,2.9.71,2.05.49,1.56,1.56.18.49-.63,2.1-.18,4.38.04,2.32.49s.58.71.85.85.54,1.21.85,1.43.76,1.25.76,1.25v2.05l.71,1.92.63,2.05s1.3,3.31,1.52,3.48.4,1.88.4,1.88l3.04.36.8.54,3.31,2.01,1.7,1.92,1.43,1.61.76,1.56.04,2.5.45.76,1.43,1.21,2.59.18.94,1.16,1.12.27s1.07,1.07,1.25,1.07.13.89.13.89l1.74,1.07,1.12.45,1.61,1.25.18.89h1.47l.31-.94.85-.22.27-.45h.63l.49.94,1.16,1.3,1.21.09.45.67h2.72l.4,2.37,1.07.31.45.63,2.86.4.36.54.58.63.76,3.53.27,2.19.4.45.98.54-.04,2.81-.58.27-.45,3.39-.49.45.65,1.43.74.63.33.67.65.63,2.08.13s.85.71.94.76.58.63.67.67.07.47.07.47l-.71.27-.78,1.41-.8,2.01-.11,2.48-.54.4-.74,1.54-.69,1.21-.31,2.41-.56.6-.13.74.22.67s.65,2.05.74,2.19.25,1.25.25,1.25l.65,1.34.45-.02.4-.54.31-.51.31-.96.74-1.54.58-1.97.45-1.3.71-.67,1.45-1.12.71-.92h.92l1.09-1.03s.07-.94.07-1.03.67-.71.67-.71h.6l.13-.65,1.97-.4,1.63.33.04,1.59.6,1.05.36.42,1.19,1.51.72.43.37-.87,3.32.1.3.46,1,.78.06.45-1.6.32-1.45,2.02-.57,1.33-1.64.69-.51,1.52-1.77,2.27-1.2.13-1.64,1.33-1.52,1.77-.57.44.13.82.51.76.57.88.82-.06.19-.76.38-.06.95-.51.63-.32,1.01-.82h1.07l.69-.57h1.64c.51,0,.82.82.82.82l.95.63,1.33.44.82-1.01,1.07-.38h3.66l.82,1.01.69.69,1.14-.19,1.33-1.45.82-.88,1.14.13.63,1.2,1.39.51.76,1.77.76.88-1.01.88.38,3.28.63,1.01-.13,1.26-1.01,1.01.51,1.99.51.88.16,1.14.85,1.67.35.54.19,1.29.57.25,1.29,1.17,1.71.28.25,4.99-.19,1.55-.95.54-.63.57-1.61.41-.44.47.16,1.01.82.73,1.2.51.32.54s.38.69.51.79c.13.09.51.09.51.09l.06-1.67.79-.63.6-.82.13-1.2.51-.35-.09-2.05,1.2-1.01.95-.57.22-.82.38-1.04,1.11-.57.63-.35,1.45-.44h4.26l.69.51,1.42.16.28.44,1.83.32.47,1.67,1.67.51.73.41,1.45,1.67-.06.82,1.45,1.2.69.69.38,1.64.69.38-.09.6-.63.25-.19.82-.38,1.26-.88,1.77-1.77,1.39-1.26,1.01-.63,1.89-.63.51-1.64.38-.76,1.01-2.4,2.4s-2.21,2.24-2.34,2.24-.69,1.71-.69,1.71l-.6,1.23-.82,1.58-.54.92-2.4-1.26-1.71-.69-.19-.69-.6-.25-.35.66-2.91-.13-.76,1.64-1.39,1.26-1.01,2.15-.51.88-.38,1.01-1.52-.13-.88-.76h-2.27l-1.01-.76-1.77-2.27-2.53-2.15-1.77-2.02-3.16-1.01-1.26-.76-.13-2.15-1.26-.38-.76-.63-1.52-.88-1.14-1.01-.51-3.79-1.14-.38-.76-1.14-2.78.63-1.26.25-3.54-.25-.51-2.27-1.26-.25-1.48-.88-.51-.47-.82-.13-.19-1.39-.57-.54-.63-1.58-.63-.57-.66-1.74-.35-1.11-.44-1.04h-1.36l-.32.98-.28,1.36h-1.01l-.44-1.86.16-.82h-2.08l-.47.69-.92,1.07-1.33,1.45-.51.69.57.44.25,1.2-.82-.06-.57.44-.19.76h-.95l-.51-.32-.57-.69-.06-.69.19-1.33-.06-.95-1.52.13-.44.76.06.88.82,1.52.82.38.76,1.01.57.69.76,1.45.13,1.01,1.2,1.26.38,2.21.69.88,1.64,1.33s.38,1.01.57,1.26c.19.25.88.69.88.69l.63,1.39.63.51-.06,1.64-.76.44-.25,1.01-.51.95-.51.63-.69.82-.44.25-.38-.44-.35-.44-1.8-1.42-1.11-1.39-1.42-.51-1.58-.69-1.01-.69-.16-.35-.69-.35-.44.98-1.07-.25-1.36-.57-.73-.69-.28-1.14-1.04-.35-.66-1.29-1.26-.76-1.39-.13-.88-.51-1.52-.51-.51-1.26-.38-1.39h-1.89l-.88-.38-.38-1.39-1.14-.38-2.27-.51-1.64-1.14-1.64-1.26v-.76l-1.26-.88-.76-2.02-.88-1.14-.38-2.02-.88-1.26-.38-1.01-1.64-.25-1.52-.63-1.26-.38-1.39-.51-1.26-1.14-.88-.51-1.52-1.64-1.52-.25-.54-1.49-.36-1.61-2.32-1.27-1.65-.94-2.48-.36-.56-.69-3.1-.07-2.12.49s-.67,1.88-.76,2.1-.63,1.32-.63,1.32l-.58,1.5-.45-.02-.11-.85-.76-.25-.76-1.14-1.01-.76-1.26-.63-.76-.63v-1.14l-.63-.51-.76-.76v-.88l-1.01-.51-.13-1.01-1.01-.88-.38-2.27.51-2.02.76-.63-.51-.63-1.26-.25-.25-.76-4.85-.25-1.85-1.94-.79-.62-.11-1.03-.28-.58-1.34.14-.56.61-.89-.63-.89-.27v-2.14l.8-.45-.27-1.25-.18-.8-.36-.89-.89-.09-.18.8h-.89l-.27-.8-1.52-1.07-.18-1.25-.45-.45-1.25-.54-2.32-.54-2.73-.87-1.23-.32s-.73-.85-.81-.93c-.08-.08-1.37-.55-1.44-.58s-.63-.9-.63-.9c0,0-.95-.43-1.01-.46-.06-.03-.52-.25-.52-.25l-.86-.41.81-1.03.82-.83.82-.69.87-.71.65-.89.54-.54.31-.22.22-2.37-.63-.63-.89-.76-.04-.85.63-.58.31-.85.58-.63.18-.71.4-.09.36-1.34.36-.27.22-1.83.63-.36.31-.45.85-.27,2.1-.4,1.03.04.54-.67,2.14-.09.94.18.54.58.94.18.54.63.85.04.4.8h.27l.31-1.7-.18-4.56-.58-2.32-1.16-.18s-.09-.89-.27-1.07-1.21-.31-1.34-.49-.8-.71-.8-.71l-.67-.58-.63-1.21.04-2.32-.67-.8-.45-1.34-1.07-.36-1.21-.71-.98-.54-.85-.85-.71-.09-1.34-1.07-.85-.94-1.03-.36-1.34-1.43-.27-1.88-.76-1.38-1.12-1.03-1.25-1.16-.36-.54-.89-.27-.67-.8-1.43-.31-.67-.58v-.94l.54-.36.22-3.89.71-.85,1.16-.85,1.16-.36.22-.71.36-.45.49-1.03.58-1.47.36-.36-.18-1.16-.54-.67-1.16-.76-.71-.27-1.07-.89-.58-.58-.98-.36-.49-.58-.71-.63-.71-1.25.04-3.93-.63-.54-.09-.89-.71-.54-.49.27-.45.36-.63.58-.76.13-.54-.54-1.12-.54-.63-.27s-.54-.67-.85-.94-.54-.54-.54-.54l.11-.36.92-.09.31-1.07s0-1.38-.13-1.47-.67-.58-.67-.58l-.89-.58-.29-1.47s-.38-.31-.38-.4v-.49l.47-.54.71-.49s.96-.38,1.05-.47.85-.69.85-.69l.62-.75Zm109.19,153.27l1.2-.51,1.83-.19,1.26-.63,1.71-.19,1.58-.32v.76l-.82.69-.13,1.45-.88.82.13,1.71-.19.82-.69.76v1.2h-.88s-.25-.51-.44-.76c-.19-.25-.51-1.14-.51-1.14l-.95-.76s-.13-1.14-.44-1.26c-.32-.13-1.01-.69-1.01-.69l-.69-.95-.06-.82h0Zm4.55,7.45l1.33-.13.25.76h1.2l.25,1.33-.63.06-.38,1.33-.44.06-.25-1.14-.38-.32-.32-.63-.63-.32v-1.01h0Z"/></g><rect class="cls-1" x="977.74" y="114.86" width="118" height="390" rx="12" ry="12"/><circle class="cls-4" cx="1036.74" cy="171.61" r="35.44"/><circle class="cls-6" cx="1036.74" cy="263.78" r="35.44"/><circle class="cls-5" cx="1036.74" cy="355.94" r="35.44"/><circle class="cls-3" cx="1036.74" cy="448.11" r="35.44"/><path class="cls-7" d="m1129,256.22l-8.48,13.55c13.17,8.27,21.94,22.93,21.94,39.59s-8.77,31.32-21.94,39.59l8.48,13.55c17.68-11.09,29.46-30.77,29.46-53.14s-11.78-42.05-29.46-53.14Z"/><path class="cls-7" d="m1198.11,145.81l-8.49,13.55c49.89,31.34,83.12,86.86,83.12,150s-33.23,118.66-83.12,150l8.49,13.55c54.4-34.17,90.63-94.71,90.63-163.55s-36.23-129.38-90.63-163.55Z"/><path class="cls-7" d="m1181.14,172.92l-8.49,13.56c40.87,25.68,68.09,71.16,68.09,122.88s-27.22,97.2-68.09,122.88l8.49,13.56c45.38-28.5,75.6-79.01,75.6-136.44s-30.22-107.94-75.6-136.44Z"/><path class="cls-7" d="m1164.16,200.04l-8.49,13.56c31.85,20,53.07,55.45,53.07,95.76s-21.22,75.76-53.07,95.76l8.49,13.56c36.36-22.84,60.58-63.31,60.58-109.32s-24.22-86.48-60.58-109.32Z"/><path class="cls-7" d="m1147.19,227.16l-8.49,13.56c22.83,14.34,38.04,39.75,38.04,68.64s-15.21,54.3-38.04,68.64l8.49,13.56c27.34-17.17,45.55-47.6,45.55-82.2s-18.21-65.03-45.55-82.2Z"/><path d="m288.02,504.86l15.7-42.6h5.1l15.7,42.6h-6.45l-11.81-34.37-11.81,34.37h-6.45Zm7.24-9.35v-5.68h22.41v5.68h-22.41Z"/><path d="m333.36,462.26v34.75c0,.72.16,1.29.48,1.7s.78.62,1.36.62h2.81v5.68h-3.52c-2.25,0-3.99-.7-5.24-2.11-1.25-1.41-1.88-3.39-1.88-5.95v-34.69h5.98Z"/><path d="m347.73,462.26v34.75c0,.72.16,1.29.48,1.7s.78.62,1.36.62h2.81v5.68h-3.52c-2.25,0-3.99-.7-5.24-2.11-1.25-1.41-1.88-3.39-1.88-5.95v-34.69h5.98Z"/><path d="m368.58,505.3c-4.24,0-7.52-1.18-9.84-3.54-2.32-2.36-3.49-5.72-3.49-10.08v-3.43c0-4.53,1.12-8.04,3.35-10.52,2.24-2.48,5.39-3.72,9.45-3.72,3.83,0,6.79,1.41,8.89,4.22,2.1,2.81,3.15,6.76,3.15,11.84v1.99h-20.51v-4.8h14.82c-.18-2.46-.82-4.38-1.92-5.77-1.1-1.39-2.58-2.08-4.44-2.08-2.25,0-3.99.74-5.24,2.23-1.25,1.48-1.88,3.58-1.88,6.3v3.87c0,2.52.67,4.45,2.01,5.8,1.34,1.35,3.22,2.02,5.64,2.02,1.21,0,2.41-.24,3.6-.73,1.19-.49,2.26-1.17,3.19-2.05l3.93,3.93c-1.5,1.45-3.19,2.56-5.07,3.35s-3.76,1.19-5.65,1.19Z"/><path d="m385.29,504.86v-30.41h5.98v30.41h-5.98Zm16.73-23.2c-.53-.64-1.19-1.13-1.99-1.46-.8-.33-1.73-.5-2.78-.5-1.89,0-3.36.52-4.41,1.57-1.04,1.04-1.57,2.5-1.57,4.35l-.62-5.86c.92-1.8,2.12-3.2,3.62-4.22s3.14-1.52,4.94-1.52c1.39,0,2.64.2,3.76.6,1.12.4,2.1.99,2.94,1.77l-3.9,5.27Z"/><path d="m405.55,479.84v-5.39h13.71v5.39h-13.71Zm10.25,25.17c-2.5,0-4.31-.69-5.43-2.08-1.12-1.39-1.68-3.38-1.68-5.98v-31.35h5.98v31.41c0,.72.15,1.29.44,1.7s.72.62,1.29.62h2.87v5.68h-3.46Z"/><path d="m434.2,505.3c-3.73,0-6.53-.77-8.39-2.31-1.87-1.54-2.8-3.91-2.8-7.09s.85-5.29,2.56-6.78c1.71-1.49,4.27-2.24,7.69-2.24h8.64l.41,4.8h-9.02c-1.54,0-2.71.35-3.49,1.04-.78.69-1.17,1.75-1.17,3.18,0,1.54.52,2.69,1.55,3.43,1.04.74,2.59,1.11,4.66,1.11,2.27,0,3.96-.24,5.1-.73,1.13-.49,1.7-1.25,1.7-2.29l.62,4.28c-.53.82-1.18,1.49-1.96,2.02-.78.53-1.67.92-2.68,1.19-1.01.26-2.14.4-3.41.4Zm7.44-.44v-19.28c0-1.99-.53-3.54-1.6-4.64-1.06-1.1-2.57-1.66-4.53-1.66-1.19,0-2.37.18-3.53.54-1.16.36-2.2.88-3.12,1.57l-4.37-2.99c1.15-1.39,2.67-2.47,4.56-3.24,1.88-.77,3.98-1.16,6.28-1.16,3.81,0,6.76.99,8.85,2.96,2.09,1.97,3.13,4.76,3.13,8.35v19.54h-5.68Z"/><path d="m485.21,490.39l12.51-28.12h5.6v42.6h-5.83v-31.9l.29,1.88-10.49,24.11h-4.16l-10.49-23.53.29-2.46v31.9h-5.83v-42.6h5.6l12.51,28.12Z"/><path d="m522.72,505.3c-4.24,0-7.52-1.18-9.84-3.54-2.32-2.36-3.49-5.72-3.49-10.08v-3.43c0-4.53,1.12-8.04,3.35-10.52,2.24-2.48,5.39-3.72,9.45-3.72,3.83,0,6.79,1.41,8.89,4.22,2.1,2.81,3.15,6.76,3.15,11.84v1.99h-20.51v-4.8h14.82c-.18-2.46-.82-4.38-1.92-5.77-1.1-1.39-2.58-2.08-4.44-2.08-2.25,0-3.99.74-5.24,2.23-1.25,1.48-1.88,3.58-1.88,6.3v3.87c0,2.52.67,4.45,2.01,5.8,1.34,1.35,3.22,2.02,5.64,2.02,1.21,0,2.41-.24,3.6-.73,1.19-.49,2.26-1.17,3.19-2.05l3.93,3.93c-1.5,1.45-3.19,2.56-5.07,3.35s-3.76,1.19-5.65,1.19Z"/><path d="m537.1,479.84v-5.39h13.71v5.39h-13.71Zm10.25,25.17c-2.5,0-4.31-.69-5.43-2.08-1.12-1.39-1.68-3.38-1.68-5.98v-31.35h5.98v31.41c0,.72.15,1.29.44,1.7s.72.62,1.29.62h2.87v5.68h-3.46Z"/><path d="m568.46,505.3c-4.24,0-7.52-1.18-9.84-3.54-2.32-2.36-3.49-5.72-3.49-10.08v-3.43c0-4.53,1.12-8.04,3.35-10.52,2.24-2.48,5.39-3.72,9.45-3.72,3.83,0,6.79,1.41,8.89,4.22,2.1,2.81,3.15,6.76,3.15,11.84v1.99h-20.51v-4.8h14.82c-.18-2.46-.82-4.38-1.92-5.77-1.1-1.39-2.58-2.08-4.44-2.08-2.25,0-3.99.74-5.24,2.23-1.25,1.48-1.88,3.58-1.88,6.3v3.87c0,2.52.67,4.45,2.01,5.8,1.34,1.35,3.22,2.02,5.64,2.02,1.21,0,2.41-.24,3.6-.73,1.19-.49,2.26-1.17,3.19-2.05l3.93,3.93c-1.5,1.45-3.19,2.56-5.07,3.35s-3.76,1.19-5.65,1.19Z"/><path d="m596.84,505.3c-3.98,0-7.07-1.16-9.26-3.47-2.19-2.31-3.28-5.57-3.28-9.77v-4.95c0-4.16,1.09-7.38,3.28-9.67,2.19-2.29,5.27-3.43,9.26-3.43s7.07,1.14,9.26,3.43c2.19,2.29,3.28,5.51,3.28,9.67v5.04c0,4.18-1.09,7.42-3.28,9.71-2.19,2.29-5.27,3.44-9.26,3.44Zm0-5.68c2.09,0,3.71-.65,4.85-1.96s1.71-3.14,1.71-5.51v-5.04c0-2.36-.57-4.19-1.71-5.48s-2.76-1.93-4.85-1.93-3.68.64-4.83,1.93c-1.15,1.29-1.73,3.12-1.73,5.48v5.04c0,2.36.58,4.2,1.73,5.51,1.15,1.31,2.76,1.96,4.83,1.96Z"/><path d="m628.57,504.86v-42.6h5.98v42.6h-5.98Zm2.99,0v-5.68h24.38v5.68h-24.38Z"/><path d="m659.38,468.24v-5.98h5.98v5.98h-5.98Zm0,36.62v-30.41h5.98v30.41h-5.98Z"/><path d="m681.08,505.39c-3.36,0-5.95-1.08-7.78-3.24-1.83-2.16-2.74-5.2-2.74-9.13v-6.71c0-3.95.89-7,2.68-9.16s4.3-3.24,7.54-3.24c1.8,0,3.44.47,4.94,1.41s2.7,2.26,3.62,3.96l-.62,6.21c0-1.29-.23-2.39-.7-3.31s-1.15-1.62-2.04-2.09c-.89-.48-1.97-.72-3.24-.72-1.97,0-3.5.62-4.58,1.85s-1.63,2.96-1.63,5.19v6.62c0,2.21.54,3.91,1.63,5.11s2.61,1.8,4.58,1.8c1.27,0,2.35-.25,3.24-.75.89-.5,1.57-1.22,2.04-2.15s.7-2.06.7-3.37l.41,6.42c-.55,1.37-1.49,2.59-2.83,3.68-1.34,1.08-3.08,1.63-5.23,1.63Zm.56,11.84c-2.29,0-4.33-.42-6.14-1.27-1.81-.85-3.21-2.05-4.2-3.59l4.04-3.66c.78,1.07,1.71,1.9,2.8,2.49s2.22.88,3.41.88c2.29,0,4.05-.63,5.3-1.89,1.25-1.26,1.88-3.04,1.88-5.35v-30.38h5.98v29.5c0,4.22-1.14,7.49-3.41,9.8-2.28,2.31-5.49,3.47-9.65,3.47Z"/><path d="m706.76,474.45v18.49c0,2.13.54,3.77,1.63,4.94s2.61,1.74,4.58,1.74,3.49-.52,4.56-1.57,1.6-2.51,1.6-4.41l.41,6.36c-.55,1.37-1.5,2.59-2.87,3.68s-3.15,1.63-5.36,1.63c-3.36,0-5.95-1.08-7.78-3.24-1.83-2.16-2.74-5.2-2.74-9.13v-18.49h5.98Zm12.36,30.41v-30.41h5.95v30.41h-5.95Z"/><path d="m731.15,504.86v-30.41h5.98v30.41h-5.98Zm16.73-23.2c-.53-.64-1.19-1.13-1.99-1.46s-1.73-.5-2.78-.5c-1.89,0-3.36.52-4.41,1.57s-1.57,2.5-1.57,4.35l-.62-5.86c.92-1.8,2.12-3.2,3.62-4.22s3.14-1.52,4.94-1.52c1.39,0,2.64.2,3.76.6s2.1.99,2.94,1.77l-3.9,5.27Z"/><path d="m753.76,468.24v-5.98h5.98v5.98h-5.98Zm0,36.62v-30.41h5.98v30.41h-5.98Z"/><path d="m775.54,505.3c-3.73,0-6.53-.77-8.39-2.31s-2.8-3.91-2.8-7.09.85-5.29,2.56-6.78,4.27-2.24,7.69-2.24h8.64l.41,4.8h-9.02c-1.54,0-2.71.35-3.49,1.04s-1.17,1.75-1.17,3.18c0,1.54.52,2.69,1.55,3.43s2.59,1.11,4.66,1.11c2.27,0,3.96-.24,5.1-.73s1.7-1.25,1.7-2.29l.62,4.28c-.53.82-1.18,1.49-1.96,2.02s-1.67.92-2.68,1.19-2.14.4-3.41.4Zm7.44-.44v-19.28c0-1.99-.53-3.54-1.6-4.64s-2.57-1.66-4.53-1.66c-1.19,0-2.37.18-3.53.54s-2.2.88-3.12,1.57l-4.37-2.99c1.15-1.39,2.67-2.47,4.56-3.24s3.98-1.16,6.28-1.16c3.81,0,6.76.99,8.85,2.96s3.13,4.76,3.13,8.35v19.54h-5.68Z"/></svg>