<?xml version="1.0" encoding="UTF-8"?><svg xmlns="http://www.w3.org/2000/svg" viewBox="0 0 128 128"><defs><style>.cls-1{fill:#fff;}.cls-2{fill:#ffda00;}.cls-2,.cls-3,.cls-4,.cls-5,.cls-6,.cls-7{stroke:#000;}.cls-2,.cls-3,.cls-4,.cls-5,.cls-7{stroke-linejoin:round;}.cls-2,.cls-3,.cls-4,.cls-5,.cls-7,.cls-8{stroke-width:.25px;}.cls-3{fill:#e00000;}.cls-4{fill:#ff8b00;}.cls-5{fill:#e2e2e2;}.cls-6{fill-rule:evenodd;stroke-width:.1px;}.cls-6,.cls-7{fill:#6cb700;}.cls-6,.cls-8{stroke-miterlimit:10;}.cls-8{fill:#ff8e1d;stroke:#474747;}</style></defs><g id="Layer_3"><rect class="cls-1" width="128" height="128"/></g><g id="Layer_2"><g id="layer4"><path id="Provincia_di_Savona" class="cls-6" d="m58.68,32.61h.03s-.03-.11-.03-.11l-.09-.02-.11-.06-.12-.09s-.06-.08-.09-.08-.15-.08-.17-.09c-.02-.02-.16-.11-.16-.11l-.09-.08-.19-.09-.1-.1-.08-.16-.1-.14-.11-.17s.02-.28.02-.3-.09-.26-.09-.26v-.21s-.08-.11-.08-.11c0,0-.03-.21-.04-.23s-.08-.07-.08-.07l-.08-.08v-.05s.12.03.12.03l.12.08.17.02.09-.03.2-.05.19.02v-.18s-.11-.07-.11-.07v-.12h.21l.08-.07h.58l.12-.09.52-.02.17-.12.14-.06.13-.1.13-.04.11-.13.06-.3s.04-.03.04-.08c0-.04.03-.19.03-.19l-.08-.05-.13-.04v-.42s-.08.01-.08-.08-.01-.51-.01-.51l.1-.16.02-.12-.1-.06v-.18s-.06-.05-.06-.05v-.2s-.08-.08-.08-.08l-.05-.12-.08-.12-.54-.03-.38.05-.08.05h-.13s-.08.08-.08.08h-.1s-.04-.07-.04-.07l-.07-.03-.02-.06h-.06v-.1l.08-.03v-.06s-.12.01-.12.01l-.16.03-.1.07h-.04s-.09.09-.09.09l-.08.1v.09h.09l.02.09.09.06-.02.04-.08.05h-.16s-.16-.01-.16-.01l-.1-.1h-.08s-.14-.05-.17-.05-.04-.1-.04-.1l-.11-.17-.07-.17v-.16s-.07-.02-.07-.02l-.09.08h-.14s-.09.09-.09.09h-.1s-.07.09-.07.09l-.11.09-.27-.03-.04-.06-.09-.02-.04-.18-.05-.04-.02-.1-.07-.03-.12-.06-.2-.02s-.14.05-.16.06c-.02,0-.35.08-.35.08l-.43.06-.49-.02-.16-.09-.22-.02-.04-.06-.12-.08-.06-.14-.13-.04-.05-.16-.02-.11h-.1l-.06.07-.03.05s-.13.08-.16.08-.09.12-.11.13-.12.15-.12.15l-.05.13-.05.16-.05.11.02.45-.06-.02-.04-.09-.14-.02-.1-.1-.14-.06-.2-.05-.19-.12-.19-.05v-.08s-.05-.14-.05-.14l-.03-.1-.15.02-.09.06-.23.08h-.1s-.06.12-.06.12l-.06.29v.47l-.04.05h-.2s-.11.09-.11.09l-.07.09v.16s.08.05.08.05l.1.1v.14s-.08.05-.08.05l-.28.03s-.05.05-.07.08c-.02.02-.2.01-.2.01l-.06.07-.08.08-.08.16-.12.06-.14.06-.04.07h-.13s-.1-.14-.1-.14v-.21s-.11-.21-.11-.21l-.09-.21-.05-.21-.17-.05-.14-.06-.11-.09-.31.02-.08.06-.16-.02-.16-.18-.03-.1-.12-.25-.09-.09-.16-.12-.05-.1h-.13l-.05.1-.28-.04-.22-.1-.35-.1-.26-.05v-.16s-.08-.06-.08-.06l-.02-.19-.05-.08-.11-.08-.06-.09-.12-.08v-.13s-.08-.05-.08-.05v-.12s-.08-.07-.08-.07h-.06l-.05.09-.14.08-.11.1-.12.09-.07.11-.18.11-.23.02-.13.09-.05.19-.05.23-.09.13-.05.12v.27l.05.08.03.15.1.11.07.14-.08.08-.07.06-.04.1h-.08s-.17.12-.17.12l-.15.07-.32.03-.02.32v.14s-.08.03-.08.03v.16s.08.07.08.07l.06.07.09.08.11.03.09.08.08.09v.27s-.09.1-.09.1l.05.08.13.11.09.11.09.26.09.13s.08.1.09.12-.01.19-.01.19l-.05.05-.03.11h-.08l-.06.06-.25.25-.02.45-.13.15-.08.1-.14.17-.14.09-.09.15-.19.12-.13-.02-.06-.09h-.09s-.06.06-.06.06l-.24.11-.16.13-.09.2-.14.12-.35.05-.02.42-.04.08-.19.14-.16.14.12.14.08.16.11.11.02.41-.09.1-.09.24-.1.12-.1.02-.06.16-.02.18-.06.09-.03.19h-.11s-.06-.08-.06-.08l-.25-.04-.4.03h-.22s-.03.08-.03.08l-.05.08v.22s.07.16.09.18c.02.02.06.09.06.09l.03.3-.08.06-.07.12-.08.11-.02.34-.06.05-.11-.02-.15-.11-.17-.08-.13-.05-.08-.05v-.2s-.08-.03-.08-.03l-.05-.09-.05-.08-.21.02-.04.08-.08.08v.12s-.12.12-.12.12l-.13.09-.03.12s-.09.06-.09.07.02.25.02.25l.06.06.03.28.41.02.06.04.08.15.08.1v.28l.14.02.11.1.14.03v.05s-.07.08-.07.08l-.09.05-.02.23-.07.1-.09.09-.11.09-.19.05-.16.07-.06.06-.09.07-.09.08v.14s.17.06.17.06l.05.06.1.11.19.15.1.09v.23s-.06.09-.06.09l-.08.16-.16.13-.17.16-.08.18v.36s.08.19.08.19l.07.17.08.17.26.09.32.04s.04.04.06.05c.02,0,.11.1.11.1l.08.08v.17s-.06.04-.06.04l-.07.16.03.25.09.16.09.15.02.14-.05.08-.14.02-.08.1-.08.09-.16.06-.06.12-.11.04-.09.18-.09.16s-.03.55-.03.57-.08.14-.08.14l-.08.06-.29.03-.29.1-.41-.03-.03-.06-.05-.06-.05-.06-.06-.13h-.06s-.12-.1-.12-.1l-.13-.15-.17-.05-.23-.07h-.28s-.05.05-.06.08-.21.09-.21.09l-.12.06-.13.08s-.09.13-.1.14-.14.12-.14.12l-.11.12-.12.13-.13.06v.23s.37.06.37.06l.05.24.09.05s.06.06.07.08c.02.02.4-.01.4-.01l.09.08.11.11-.06.22-.12.02-.19.02v.16s.15.05.15.05l.15.06.07.07h.08s.08-.09.08-.09h.09s.03.11.03.11l.08.08v.47s0,.17,0,.17l.17.03h.14s.01.27.01.27l.08.1.03.08.04.04.04.29.05.14.04.37-.02.33-.08.14-.06.12-.08.08-.08.05-.04.16-.07.17-.16.08-.03.06-.08.06-.06-.03-.06-.06v.06s-.05.1-.05.1l-.08.16-.06.15-.17.09-.23.08-.14.04h-.3s-.09.07-.09.07l-.05.13v.15s-.13.04-.13.04l-.07.17-.1.07-.08.05v.1s.09.08.09.08l.03.16.06.06.04.05.17.02.06.11.09.06.07.07.02.06.08.07.1.03.12.09.05.08.02.24.05.08.06.12.05.07.03.12.07.07.05.11.1.12.07.09h.2s.12-.05.12-.05l.11-.06.27-.02.24.05.09.08s.13-.02.14-.02.14-.07.14-.07l.13-.09h.32s.24,0,.24,0l.05.1h.13l.11-.1h.2s.09.08.09.08l.11.04.11.11.16.06.07.11.14.04.23.19.08.16.12.24.13.14.06.13.14.11v.29s-.02.32-.02.32l.03.27h.17l.17-.03h.1s0-.27,0-.27l.17-.09.09-.08.13-.14h.19l.11-.09h.5s.09-.07.09-.07h.09l.04-.17-.1-.1-.17-.14-.1-.12v-.09l-.07-.11-.04-.1-.11-.2v-.36s.07-.08.07-.08l.03-.29.09-.31s.05-.03.06-.05.05-.16.05-.16l.14-.17.04-.04.06-.14.05-.12h.06s.03-.07.05-.1.09-.09.09-.09l.07-.09.06-.05h.23s.11,0,.11,0l.07-.07.03-.11-.07-.05v-.14s.09-.11.09-.11l.06-.04v-.13s.07-.07.07-.07l.12-.08.11-.11.07-.09s.13-.03.15-.05.15-.09.15-.09l.13-.1.04-.07.08-.07.1-.02.06-.05.03-.12v-.3s-.07-.09-.07-.09l-.05-.21v-.54s.1-.11.1-.11l.02-.55.06-.11.02-.26s.09-.14.09-.15.06-.24.06-.24l.09-.2.12-.11.04-.05.06-.14.08-.17.09-.17.07-.18.22-.19.07-.09.05-.15.14-.16.06-.05.05-.21.08-.18.18-.19.18-.16.14-.05.16-.17.18-.09.07-.13.19-.05.2-.05.06-.07.16-.05.16-.06.2-.03.17-.07.15-.07.1-.06.19-.05.1-.07.15-.13.29-.1.3-.09.24-.04.1-.05.06-.09.05-.07.09-.03.05-.05.18-.02.2-.08h.47s.18-.03.18-.03l.19-.09.05-.15.09-.05.11-.07.1-.09.14-.04.07-.08.13-.04s.05-.16.04-.17c0-.01-.08-.09-.08-.1s-.19-.03-.19-.03l-.08-.09v-.16s-.03-.64-.03-.64l.05-.29.12-.21.1-.11.02-.12.07-.07.27-.1.18-.05.05-.08h.09s.05.06.05.06l.02.22s.05.01.05,0,.05-.07.05-.07l.03-.08-.06-.03s-.04-.19-.04-.2.06-.07.06-.07l.06-.21.09-.24.08-.19.1-.17.02-.14-.13-.12s-.2-.03-.22-.05-.12-.18-.12-.18l-.02-.24.03-.34.12-.1.09-.2.15-.24.11-.09.06-.09.2-.07.22-.17.16-.1.26-.07.17-.09.15-.14.1-.02.07-.08s.14-.12.14-.13.02-.28.02-.28l-.08-.08v-.1s.1-.1.1-.1l.07-.07.14-.15.15-.12.05-.05.11-.06.27-.05.14-.05.2-.05.13-.09.18-.08.14-.09s.12-.16.12-.17c0-.01.15-.06.15-.06l.07-.07.29-.03.21-.07.05-.19.05-.05.03-.3.09-.06.19-.04h.36s.09-.09.09-.09l.29-.06.17-.09.1-.07.04-.07.14-.05.16-.07.16-.11.18-.07.16-.08.08-.09.09-.17.12-.02h0Zm-15.08,17.96v-.23s.16,0,.16,0l.03.06.05.04v.06h-.12l-.03.07-.05.02-.04-.02h0Z"/></g><g id="layer5"><path id="Provincia_di_Genova" class="cls-6" d="m89.44,31.04l-.07.09s-.09.07-.1.08-.12.06-.12.06l-.09.06-.06.06v.06s.05.05.05.05l.03.18.11.07s.06.06.08.07.02.18.02.18l-.04.13h-.11s-.01.05-.01.05c0,0,.03.03.06.06s.1.11.1.11l.07.03.13.06.06.06.09-.02.07-.07.05-.04.06-.03.09.06v.11s.09.06.09.06v.47s.08.15.08.15l.09.07.06.07.12.04.07.07.13.11.09.03.14.09.06.08.02.14-.04.04-.07.18-.06.12-.04.05-.03.09-.14.04-.14.1-.09.1-.03.46-.06.04v.11l.08.07.17.04.08.1.11.03.04.06.15.14.13.12.09.16.03.22.16.17.12.04.1.11.16.13h.09s.1.11.1.11l.12.06.14.09.13.04.05.16.08.1v.28s.07.14.07.14l.08.07s.08.06.1.09.14.04.16.06.03.13.03.13l.14.02.07.28.02.54-.04.2h-.03l-.05-.1h-.1s-.06-.08-.06-.08l-.11-.02-.06-.07-.11-.02h-.26s-.06.09-.06.09h-.12s-.25.04-.25.04l-.1.03-.04.05-.07.04-.03.22-.04.03-.04.16h-.05s-.02.1-.02.1l-.07.07-.04.1-.07.07v.1s.11.09.11.09l.07.07-.03.28-.04.03-.06.06-.08.11-.1.09-.1.08-.1.1-.1.12-.04-.08-.06-.09-.06-.07-.13-.02-.05-.06-.08-.08-.03-.13-.04-.04v-.14s-.02-.11-.02-.11l-.06-.06-.02-.05-.06-.05-.09-.07-.11-.1-.18-.04-.04-.08h-.05s-.06.1-.06.1l-.02.05-.08.05-.02.06-.06.1-.04.07h-.07l-.08-.06-.1-.03-.04-.05-.13-.05-.06-.07h-.1s-.06-.07-.06-.07l-.21.02-.06.07-.14-.02-.04-.05-.07-.07-.07-.09-.09-.17-.14-.19-.05-.14-.06-.11-.09-.07-.14-.08-.16-.05-.06-.08h-.13l-.07.07-.05.1-.17.02-.06.06h-.12s-.01-.14-.01-.14l-.02-.11-.03-.17-.1-.18-.07-.05h-.11s-.11.06-.11.06h-.15l-.07-.1.07-.1h.22s.03-.03.03-.03v-.07s.01-.21.01-.21l-.04-.07-.03-.08-.08-.1-.09-.09-.12-.09-.18-.18-.1-.13-.14-.05-.12-.13-.16-.15-.13-.05-.13-.06-.12-.08-.11-.04-.04-.12h-.1s-.05-.07-.05-.07l-.2-.11-.11-.03-.09-.04h-.04s-.01.03-.01.03l.1.06.14.08.1.09.03.09-.07.05-.04-.14-.15-.05-.07-.06h-.09l-.03-.14-.03-.02h-.06s-.32-.04-.32-.04l-.02-.04-.13-.04v-.03s.14,0,.14,0l.04-.06-.05-.09-.06-.04-.1-.05-.11-.05-.1-.09-.13-.05-.1-.06-.06-.04-.13-.04-.07-.04-.14-.04-.07-.07-.16-.03-.06-.05-.14-.04-.16-.08-.04-.06-.06-.06-.11-.03-.09-.06-.19-.06-.06-.05-.14-.02-.1-.05-.24-.12-.11-.03-.09-.1-.15-.05-.04-.09-.05-.06-.21-.02-.07.09-.04.1-.05.12v.33s-.06.07-.06.07h-.1l-.12-.1h-.1s-.07.11-.07.11l-.02.22.05.07.09.19-.05.31-.05.15-.02.2-.06.04h-.13s.02.09.02.09l.06.07.1.09.07.06.03.1.11.11-.03.1-.13-.02-.06-.05-.15-.04-.06-.04-.11-.03-.1-.09-.2-.12-.15-.05-.22-.07h-.31s-.02-.06-.02-.06l-.07-.07-.13-.05-.1-.06-.16-.05-.1-.02h-.17s-.1-.05-.1-.05l-.06-.11-.03-.11-.1-.05v-.14l.05-.08.05-.15.08-.1.05-.08.05-.42-.03-.38-.03-.08-.12-.05-.08-.05v-.14s-.09-.05-.09-.05l-.12-.08-.02-.15-.22-.04-.32-.02-.08-.05-.08-.1h-.11l-.18-.11-.11-.04-.23-.05-.05-.1-.09-.04h-.29l-.2-.06-.24-.1-.14-.05-.16-.05-.21-.12-.28.02-.11-.06-.39-.04-.17-.05-.39-.04-.14-.04-.4-.02-.11-.07-.3-.04-.22-.06-.19-.09-.15-.09-.07-.07h-.21s-.12.06-.12.06l-.26.04-.3-.02-.05-.06-.33-.02-.1-.02-.16-.12h-.19s-.09-.05-.09-.05l-.1.06-.05-.06-.1-.03v-.07s-.05-.08-.05-.08l-.03-.2v-.36s-.05-.06-.05-.06l-.04-.07-.11-.05-.06-.05h-.06s-.09.06-.09.06h-.1s-.07.08-.07.08l-.12.02v.26s.02.07.04.07.24.03.26.03.06.06.06.06v.12s-.05.04-.05.04v.12s-.12,0-.12,0l-.05-.06-.21-.04-.17-.08-.34-.02-.09-.06h-.26s-.2-.03-.2-.03l-.05-.06h-.23l-.15-.02-.23-.09-.07-.06h-.25s-.06-.07-.06-.07l-.17-.03-.15-.06-.22-.02-.07-.05-.18-.02-.05-.04-.07-.02-.12-.05-.03-.09.07-.06h.07s.03.08.03.08h.06s.13,0,.13,0l.2.02.11.02.1.02.07-.04.1-.04.12-.05.09-.03-.07-.07-.11-.05-.14-.04-.12-.06h-.54l-.09-.08-.25-.02-.1.06-.04.14h-.11l-.08-.04-.07-.09-.08-.04-.09-.06h-.22s-.18.03-.18.03l-.16-.06-.13-.06h-.18s-.01.05-.01.05l.09.08h.25l.11.05h.16l.1.09v.03l-.06.04-.07.13h-.21s-.05-.1-.05-.1h-.23l-.1-.04-.15-.07-.07-.09-.13-.04-.13-.09-.15-.04-.28.02h-.3s-.07.09-.07.09l-.13.02-.04.04-.15.03-.04.03-.09.04-.07.06-.11.04-.09.06h-.07l-.09.09h-.18l-.07.04-.12.04-.07.07-.05.11h-.12l-.12.04-.04.1h-.12l-.05.06-.05.1-.05.1h-.07s.03.17.03.17l.05.04v.05s-.07.06-.07.06l-.15.17h-.17s-.23.06-.23.06h-.5s-.2.13-.2.13l-.26.09-.09.1-.15.03-.08.16-.04.16h-.01s-.03-.12-.03-.12l-.09-.02-.11-.06-.12-.09s-.06-.08-.09-.08-.15-.08-.17-.09c-.02-.02-.16-.11-.16-.11l-.09-.08-.19-.09-.1-.1-.08-.16-.1-.14-.11-.17s.02-.28.02-.3-.09-.26-.09-.26v-.21s-.08-.11-.08-.11c0,0-.03-.21-.04-.23s-.08-.07-.08-.07l-.08-.08v-.05s.12.03.12.03l.12.08.17.02.09-.03.2-.05.19.02v-.18s-.11-.07-.11-.07v-.12h.21l.08-.07h.58l.12-.09.52-.02.17-.12.14-.06.13-.1.13-.04.11-.13.06-.3s.04-.03.04-.08c0-.04.03-.19.03-.19l-.08-.05-.13-.04v-.42s-.08.01-.08-.08-.01-.51-.01-.51l.1-.16.02-.12-.1-.06v-.18s-.06-.05-.06-.05v-.2s-.08-.08-.08-.08l-.05-.12-.08-.12-.54-.03-.38.05-.08.05h-.13s-.08.08-.08.08h-.1s-.04-.07-.04-.07l-.07-.03-.02-.06h-.06v-.1l.08-.03v-.06s-.12.01-.12.01l-.16.03-.1.07h-.04s-.09.09-.09.09l-.08.1v.09h.09l.02.09.09.06-.02.04-.08.05h-.16s-.16-.01-.16-.01l-.1-.1h-.08s-.14-.05-.17-.05-.04-.1-.04-.1l-.11-.17-.07-.17v-.16s-.08-.02-.08-.02l-.02-.11-.04-.07v-.36s.01-.14.01-.14l.14-.1.09.02.11.04h.11s.1-.14.1-.14l.13-.12.02-.24s.01-.11.05-.13.09-.11.17-.11.29-.02.29-.02l.07.11.06-.13.05-.16.1-.09.06-.09-.06-.09-.12-.04-.04-.13-.15-.12-.19-.06-.14-.12.03-.3.14-.06v-.21l.15-.11h.21l.05.06.13-.02.07-.22.09-.13.03-.05-.07-.09v-.24l.06-.09.08-.05.04-.03.02.05.03.11.06.09.09.07.1.02h.21s.04.07.04.07h.12s.03-.07.03-.07h.57s.07.09.07.09h.09l.02-.09.05-.07h.19s.08.06.08.06l.14.05.04.08.04.14h.18l.12-.12.03-.15.03-.11.11.09.08.03.14.09h.14l.12-.09h.36l.29.03.02.08.08.05v.14l.09.11.12.09.06.05.05.09.11.06.03.29.09.09.02.11.08.11-.11.11v.09l.09.02.17.09h.17v.38l.09.14.02.12.11.03v.12s-.07.05-.07.05l-.03.2-.06.05-.03.11-.05.03v.11s.08.03.08.03h.1s.01-.16.01-.16c0,0,.08-.06.09-.08s.08-.13.08-.13l.1.03.05.12.09.08.08.11.02.17-.07.07v.14l.1.1-.02.28.09.03.04.12.05.11v.13l-.07.03-.03.21-.14.04v.21s.03.07.03.07l.03.07.34.05.32-.06.05-.16.09-.23.05-.12.1-.09h.06l.03-.49-.11-.12-.03-.35.09-.28.05-.2.1-.11.16-.16.13-.1.23-.09.31.03.07-.11.09-.11.12-.05v-.09s-.11-.09-.11-.09l-.09-.11-.14-.12v-.35s.11-.09.11-.09l.09-.16h.61l.09.04h.35s.23-.02.23-.02l.06-.06h.02l.03-.14.12-.04.06.05s.1.11.1.11.11.14.11.14l.09.08v.14l.15.17.14.05.12.08h.08l.03-.09.11-.17h.15s.27-.04.27-.04l.2-.15.14-.04.09-.1.09-.2v-.22l-.14-.09-.11-.15-.15-.2v-.27l-.09-.13s0-.41.01-.46-.04-.17-.04-.17l-.12-.19-.09-.16v-.19s.1-.05.1-.05l.09-.02v-.14l-.11-.07-.02-.29-.1-.1-.17-.13-.11-.04-.07-.07-.06-.14-.13-.02-.14-.13v-.3h.22l.06-.13h.23l.16-.07.17-.11.1-.06.04-.1.07-.06.09-.16.02-.11.07-.07.09-.13.02-.21.11-.21.05-.19.09-.15.15-.11h.31l.06.06.39.02.11-.06.29-.03.06.07.05.18.09.26.15.14.15.04.32-.02.05-.07.06-.02.06.15.06.09h.05s.07-.09.07-.09c0,0,.07-.12.08-.12,0,0,.15-.15.15-.15l.38-.03.12.11.13.19.14.06.03.33.06.03v.27h.11s.22.02.22.02l.04.05v.09l-.1.03-.09.05.04.1h.14l.14.04.03.12.07.28.04.05.05.11.05.1v.51s-.01.07-.01.07l.05.06.03.12h.03l.07-.19.05-.15.54-.06.1-.11.33.03.18.08.04.17.12.15.14.12.18.08.24.03.07.24-.1.24-.1.14v.32l.19.26.15.21.05.14.17.08.35.17.23.06.42.06.41-.06.18-.2.18-.03.05-.15.17-.18.12-.09.24-.15.14-.03.08-.06.41-.03.2-.06.17-.21-.02-.44-.12-.11-.03-.3h.23l.29-.09.32-.12.17-.05h.6l.12.12.18.15.12.08v.18l-.14.03-.12.11-.03.12-.15.06-.03.18.14.03.39.02.36.09.12.06h.36l.09-.09.05-.21.06-.3.09-.14.08.03.15.05.21.05.18.12v.17l.09.18.17.08.15.15.11.09.2.14.18.21.18.18.14.18.07.07.09-.07.12-.12.09-.1.06-.05.22-.03.11-.1.2.07.18.13.2.25.15.03.08-.36.14-.39.14.04.04.16.22.03.11-.19.1-.53h.13s.11.12.11.12l.17.12.13.05.06.14.03.29-.16.07v.3l.12.18.14.06.16.03.17.12.18.12.07.14.17.04.37.07.4-.15h.18l.14.13.14.05.2.09.18.16.14.09-.04.05-.04.12v.17l-.11.04.02.28.11.05.18.1.11.06.03.2.09.05v.13s.06.04.06.04l.04.22-.03.32-.12.07.03.35-.11.09v.1l-.06.15-.09.07-.02.37.04.34.02.26.09.03v.15l-.12-.04-.12.07-.14.12h-.29s-.12-.1-.12-.1l-.14-.15-.14.03-.02.13v.5s-.1.38-.1.38l-.15.3-.05.1-.04.41-.1.32-.35.11-.09.18-.07.17-.08.1-.05.09v.22s.01.27.01.27l.09.11.06.05s.1-.07.12-.08.2-.06.22-.07.16-.11.16-.11l.22-.13.04-.06h.27s.08-.01.08-.01l.05.1v.12l-.1.04-.02.25.02.08.03.05.12.06.11.06h0Zm-24.42-.46l-.09-.07h-.05s-.09.11-.09.11v.07s-.08,0-.08,0l-.06.1-.08.07h-.43s-.1-.09-.1-.09h-.22l-.1-.08h-.12l-.03.04.1.03.08.06.16.03h.11s.06.06.06.06h.12s.16.02.16.02l.05.03h.17s.09-.08.09-.08l.06-.12h.09s.03-.14.03-.14l.14-.04h0Zm.29.26h.14s.14.08.14.08l.18.02.17.06.17.05.21.06.18.05.13.03.27.06.16.07.19.06.11.03-.02.03h-.15l-.24-.07-.17-.07-.24-.08-.16-.03s-.18-.04-.2-.05c-.02,0-.15-.08-.15-.08l-.26-.04-.16-.08h-.27l-.02-.11h0Zm2.5.64l.24.03.26.06.32.05.22.09v.07s-.06,0-.09-.02-.23-.08-.23-.08l-.22-.06-.23-.07-.27-.04v-.04s0,0,0,0Z"/></g><g id="layer6"><path id="Provincia_di_La_Spezia" class="cls-6" d="m89.44,31.04l.08-.17.06-.18.05-.16.06-.06.1-.02.05-.07.14-.02.05-.08h.18s.09-.09.09-.09h.43l.08-.06h.41s.11-.11.11-.11h.2s.08.11.08.11l.05.08.25-.02.02-.08.08-.08h.1s0-.1,0-.1l.07-.08.02-.2.1-.08.05-.07.2.02.09.07h.17s.05.07.05.07l.24.04.05.17.09.1.05.14h.05l.06-.11.07-.07h.11s.05-.09.05-.09l.08-.07.03-.1h.06l.02-.09h.13l.09.06.08.05.04.26.03.04.26.24.19.11.07.02.23.19.13.02.16.18.13.07.53.02.02.14.13.18.15.17.06.18-.02.36.09.05v.43s.15.1.15.1l.02.35.09.24.06.19.19.02.06-.07.25-.02h.52s.28.06.28.06c0,0,.07.09.1.1s.06.14.1.17.09.15.09.15v.24l.09.23.07.24s.15.39.18.41.05.22.05.22l.36.04.1.06.39.24.2.23.17.19.09.19v.3s.06.09.06.09l.17.14.31.02.11.14.13.03s.13.13.15.13.02.11.02.11l.21.13.13.05.19.15.02.11h.18l.04-.11.1-.03.03-.05h.07l.06.11.14.15h.14s.05.09.05.09h.32l.05.28.13.04.05.07.34.05.04.06.07.07.09.42.03.26.05.05.12.06v.33s-.07.03-.07.03l-.05.4-.06.05.08.17.09.07.04.08.08.07.25.02s.1.09.11.09.07.07.08.08,0,.06,0,.06l-.09.03-.09.17-.1.24v.3s-.08.05-.08.05l-.09.18-.08.14-.04.29-.07.07-.02.09.03.08s.08.24.09.26.03.15.03.15l.08.16h.05s.05-.07.05-.07l.04-.06.04-.11.09-.18.07-.23.05-.15.09-.08.17-.13.09-.11h.11l.13-.12s0-.11,0-.12.08-.09.08-.09h.07l.02-.08.23-.05.19.04v.19s.08.12.08.12l.04.05.14.18.09.05.04-.1h.4s.04.07.04.07l.12.09v.05s-.18.04-.18.04l-.17.24-.07.16-.2.08-.06.18-.21.27-.14.02-.2.16-.18.21-.07.05.02.1.06.09.07.11h.1s.02-.1.02-.1h.05s.11-.07.11-.07l.08-.04.12-.1h.13l.08-.07h.2c.06,0,.1.1.1.1l.11.08.16.05.1-.12.13-.05h.44l.1.12.08.08.14-.02.16-.17.1-.11.14.02.08.14.17.06.09.21.09.11-.12.11.05.39.08.12-.02.15-.12.12.06.24.06.11.02.14.1.2.04.06.02.15.07.03.15.14.2.03.03.59-.02.18-.11.06-.08.07-.19.05-.05.06.02.12.1.09.14.06.04.06s.05.08.06.09c.02.01.06.01.06.01v-.2s.1-.08.1-.08l.07-.1.02-.14.06-.04v-.24s.13-.12.13-.12l.11-.07.03-.1.05-.12.13-.07.08-.04.17-.05h.51l.08.06.17.02.03.05.22.04.06.2.2.06.09.05.17.2v.1s.17.14.17.14l.08.08.05.2.08.05v.07s-.09.03-.09.03l-.02.1-.05.15-.11.21-.21.17-.15.12-.08.23-.08.06-.2.05-.09.12-.29.29s-.26.27-.28.27-.08.2-.08.2l-.07.15-.1.19-.06.11-.29-.15-.2-.08-.02-.08-.07-.03-.04.08-.35-.02-.09.2-.17.15-.12.26-.06.11-.05.12-.18-.02-.11-.09h-.27l-.12-.09-.21-.27-.3-.26-.21-.24-.38-.12-.15-.09-.02-.26-.15-.05-.09-.08-.18-.11-.14-.12-.06-.45-.14-.05-.09-.14-.33.08-.15.03-.42-.03-.06-.27-.15-.03-.18-.11-.06-.06-.1-.02-.02-.17-.07-.06-.08-.19-.08-.07-.08-.21-.04-.13-.05-.12h-.16l-.04.12-.03.16h-.12l-.05-.22.02-.1h-.25l-.06.08-.11.13-.16.17-.06.08.07.05.03.14h-.1s-.07.05-.07.05l-.02.09h-.11l-.06-.04-.07-.08v-.08s.02-.16.02-.16v-.11s-.19.02-.19.02l-.05.09v.11s.11.18.11.18l.1.05.09.12.07.08.09.17.02.12.14.15.05.26.08.11.2.16s.05.12.07.15c.02.03.11.08.11.08l.08.17.08.06v.2s-.1.05-.1.05l-.03.12-.06.11-.06.08-.08.1-.05.03-.05-.05-.04-.05-.21-.17-.13-.17-.17-.06-.19-.08-.12-.08-.02-.04-.08-.04-.05.12-.13-.03-.16-.07-.09-.08-.03-.14-.12-.04-.08-.15-.15-.09-.17-.02-.11-.06-.18-.06-.06-.15-.05-.17h-.23l-.11-.05-.05-.17-.14-.05-.27-.06-.2-.14-.2-.15v-.09l-.15-.11-.09-.24-.11-.14-.05-.24-.11-.15-.05-.12-.2-.03-.18-.08-.15-.05-.17-.06-.15-.14-.11-.06-.18-.2-.18-.03-.06-.18-.04-.19-.28-.15-.2-.11-.3-.04-.07-.08h-.37s-.25.05-.25.05c0,0-.08.22-.09.25s-.07.16-.07.16l-.07.18h-.05s-.01-.1-.01-.1l-.09-.03-.09-.14-.12-.09-.15-.08-.09-.08v-.14l-.08-.06-.09-.09v-.11l-.12-.06-.02-.12-.12-.11-.05-.27.06-.24.09-.08-.06-.08-.15-.03-.03-.09-.58-.03-.22-.23-.09-.07v-.12s-.05-.07-.05-.07l-.16.02-.07.07-.11-.07-.11-.03v-.26l.1-.05-.03-.15-.02-.1-.04-.11h-.11s-.02.09-.02.09h-.11l-.03-.1-.18-.13-.02-.15-.05-.05-.15-.06-.28-.06-.33-.1-.15-.04s-.09-.1-.1-.11c0,0-.16-.07-.17-.07s-.08-.11-.08-.11c0,0-.11-.05-.12-.05,0,0-.06-.03-.06-.03l-.1-.05.1-.12.1-.1.1-.08.1-.09.08-.11.06-.06.04-.03.03-.28-.07-.07-.11-.09v-.1s.07-.07.07-.07l.04-.1.07-.07.02-.09h.05s.04-.17.04-.17l.04-.03.03-.22.07-.04.04-.05.1-.03.25-.05h.12s.06-.07.06-.07h.26s.11.01.11.01l.06.07.11.02.06.07h.1s.05.1.05.1h.03l.04-.2-.02-.54-.07-.28-.14-.02s-.01-.11-.03-.13-.14-.04-.16-.06-.1-.09-.1-.09l-.08-.07-.07-.14v-.28s-.07-.1-.07-.1l-.05-.16-.13-.04-.14-.09-.12-.06-.1-.1h-.09s-.16-.14-.16-.14l-.1-.11-.12-.04-.16-.17-.03-.22-.09-.16-.13-.12-.15-.14-.04-.06-.11-.03-.08-.1-.17-.04-.08-.07v-.11l.06-.04.03-.46.09-.1.14-.1.14-.04.03-.09.04-.05.06-.12.07-.18.04-.04-.02-.14-.06-.08-.14-.09-.09-.03-.13-.11-.07-.07-.12-.04-.06-.07-.09-.07-.09-.15v-.47s-.07-.06-.07-.06v-.11s-.1-.06-.1-.06l-.06.03-.05.04-.07.07-.09.02-.06-.06-.13-.06-.07-.03s-.06-.08-.1-.11-.06-.06-.06-.06v-.04s.12-.01.12-.01l.04-.13s0-.16-.02-.18-.08-.07-.08-.07l-.11-.07-.03-.18s-.05-.04-.05-.05v-.06l.06-.06.09-.06s.11-.05.12-.06.1-.08.1-.08l.07-.09Zm13,18.24l.14-.06.22-.02.15-.08.2-.02.19-.04v.09l-.1.08-.02.17-.11.1.02.2-.02.1-.08.09v.14h-.11s-.03-.06-.05-.09c-.02-.03-.06-.14-.06-.14l-.11-.09s-.02-.14-.05-.15c-.04-.02-.12-.08-.12-.08l-.08-.11v-.1h0Zm.54.89l.16-.02.03.09h.14l.03.16h-.08s-.05.17-.05.17h-.05s-.03-.13-.03-.13l-.05-.04-.04-.08-.08-.04v-.12h0Z"/></g><g id="layer3"><path id="Provincia_di_Imperia" class="cls-6" d="m40.37,54.79l-.02.16-.07.08-.08.16-.13.12-.05.07-.07.04-.22.06-.11.06-.23.04-.05.13-.17.09-.22.06-.14.05-.25.25-.2.19-.11.11-.04.3.09.07v.11l-.08.09-.09.08-.12.09-.14.03-.12.08-.33.02h-.4l-.3.07-.19.08-.14.07-.13.07-.16.14-.06.05v.06s.15.03.15.03l-.02.04-.06.05-.19.06-.16.1-.25.09-.14.07-.28.1-.27.05-.23.12-.27.06-.21.06-.05.18-.03.16-.09.08-.08.06-.22.06-.16.07-.06.06-.32.02-.11.04-.44.02-.26.02-.06.07-.11.11-.1.09-.11.13-.1.04h-.24l-.11-.08-.09-.03h-.23s-.07.1-.07.1h-.06s-.1-.1-.1-.1h-.11s-.19.07-.19.07l-.14.07-.18.08-.11.11-.27.03-.23.08-.08.06-.11.03-.07.08-.05.18-.04.06-.08.06-.05.11-.05.09h-.17l-.16-.06-.16-.15-.14-.13-.2-.03-.09-.09h-.27l-.16.09-.27.05-.22.09-.18.12-.29.09-.14.19-.09.08-.06.03-.06.08-.3-.02-.08.1-.03.11-.05.13h-.19s-.07.08-.07.08l-.03.09-.03.09-.16.03-.11-.07s-.26-.04-.28-.04-.05-.06-.05-.06l-.19-.03-.13-.1-.32.02-.06.07h-.22s-.05.08-.05.08l-.12.13-.03.06s.08.06.08.06c0,0,.01.04.01.04l-.07.05-.06.12h-.15l-.28.29-.12.2-.07.09-.2.03h-.23s-.14-.11-.14-.11l-.12-.06-.12-.09-.42-.04-.21-.07-.13-.05-.26-.02-.18-.03-.21-.14-.27-.05-.3-.05-.19-.11h-.14s-.12-.09-.12-.09h-.65l-.14.08-.13.09-.11.1-.05.15-.02.15-.11.18-.14-.02-.08-.08-.14-.02-.22-.06-.2-.07-.16-.07v-.18l-.04-.17-.07-.22-.29-.38-.02-.46-.09-.19-.09-.24-.07-.24v-.16s-.08-.24-.08-.24v-.51l-.1-.04-.14-.1-.13-.11v-.26l-.08-.05v-.22s0-.22,0-.22l.09-.12.06-.08v-.19l.06-.11.06-.14.13-.12.18-.15.17-.19.14-.14.23-.11.2-.09.14-.04.21-.05.1-.07.31-.04.14-.06.08-.08.08-.02.17-.09.05-.02v-.08l-.08-.05v-.2s0-.14,0-.14l-.08-.07-.04-.07v-.25l.08-.07.17-.12.1-.11.02-.12.09-.04-.02-.27.1-.08v-.21l-.09-.08-.11-.12.04-.21.08-.07h.09l.06-.08.09-.02.02-.06h.08l.05.08.07.04.05-.18.04-.11.13-.09.14-.02.1-.08h.34l.13.1.05.03.07-.12.25-.08.4-.14.05-.08.16-.08.14-.1.03-.13.09-.11.07-.02.07-.07.13.02.08.05h.08l.13-.2.05-.07-.09-.11v-.27l.12-.11.05-.11.15-.14.17-.21.12-.08-.09-.14v-.26s-.08-.08-.08-.08l-.02-.24-.09-.16-.02-.43v-.29l.08-.1h.2l.14-.07.14-.02.15-.1.18-.08.08-.06.13-.08.11-.09.07-.08h.09s.07-.08.07-.08l.05-.14.07-.08-.02-.2.08-.07v-.11s.1-.09.1-.09l.13-.1h.18s.28,0,.28,0l.05.05.08.06.02-.06.03-.1s.02-.28.03-.29.09-.09.09-.09c0,0,.1-.18.13-.26s.12-.11.12-.11l.18-.07.12-.08.23-.06.02-.06s.19,0,.19,0c0-.02.04-.12.04-.12h-.13s-.17,0-.18,0h-.19l-.13.09-.25.03-.14-.05-.08-.16-.04-.18-.12-.18-.15-.25-.13-.16.02-.38.09-.1.13-.16v-.34s0-.17,0-.17l.09-.13.07-.05h.25s.22-.07.22-.07l.11-.1.03-.17.09-.06.14-.05.19-.09.08-.06.25-.02.3.02.14.09.12.06.1.07.13.09.07.05.09.03.09.11.16.04.15.09.08.08.12.04.15.06.1.11.04.04h.21s.08.05.08.05l.17.05.17.05.09.04h.14l.08-.08.1-.04h.2s.09.09.09.09l.19.03.14.04.18.02.11.09.1.02.08.09.14.06.1.04.03.16.05.12v.1s.11.02.11.02l.06-.08.26-.02.14-.09h.26l.12-.06h.25s.05.06.05.06h.11s.09-.07.09-.07h.1s.09.06.09.06l.07.11.05.11.1.15h.09l.08.08h.11s.08-.07.08-.07l.11-.03.07-.08h.09l.05.09h.05s.06-.08.06-.08h.08s.06-.07.06-.07l.06-.11.05-.12.06-.08.08-.07.12-.02.05-.06h.05s.08.11.08.11l.05.08.14.03.22.02.13.08.11.05.09.08.09.06.14.06h.17s.08-.05.08-.05l.09-.1.09-.18v-.08s.09-.08.09-.08h.09s.03.11.03.11l.08.08v.47s0,.17,0,.17l.17.03h.14s.01.27.01.27l.08.1.03.08.04.04.04.29.05.14.04.37-.02.33-.08.14-.06.12-.08.08-.08.05-.04.16-.07.17-.16.08-.03.06-.08.06-.06-.03-.06-.06v.06s-.05.1-.05.1l-.08.16-.06.15-.17.09-.23.08-.14.04h-.3s-.09.07-.09.07l-.05.13v.15s-.13.04-.13.04l-.07.17-.1.07-.08.05v.1s.09.08.09.08l.03.16.06.06.04.05.17.02.06.11.09.06.07.07.02.06.08.07.1.03.12.09.05.08.02.24.05.08.06.12.05.07.03.12.07.07.05.11.1.12.07.09h.2s.12-.05.12-.05l.11-.06.27-.02.24.05.09.08s.13-.02.14-.02.14-.07.14-.07l.13-.09h.32s.24,0,.24,0l.05.1h.13l.11-.1h.2s.09.08.09.08l.11.04.11.11.16.06.07.11.14.04.23.19.08.16.12.24.13.14.06.13.14.11v.29s-.02.32-.02.32l.03.27h.17l.17-.03h.1s0,.01,0,.01Z"/></g><rect class="cls-5" x="53.85" y="66.71" width="20.31" height="67.12" rx="3" ry="3" transform="translate(-36.27 164.27) rotate(-90)"/><circle class="cls-7" cx="40.21" cy="100.27" r="6.1"/><circle class="cls-2" cx="56.07" cy="100.27" r="6.1"/><circle class="cls-4" cx="71.93" cy="100.27" r="6.1"/><circle class="cls-3" cx="87.79" cy="100.27" r="6.1"/><path class="cls-8" d="m55.12,85.55l2.52,1.58c1.54-2.45,4.27-4.08,7.37-4.08s5.83,1.63,7.37,4.08l2.52-1.58c-2.06-3.29-5.73-5.48-9.89-5.48s-7.83,2.19-9.89,5.48Z"/><path class="cls-8" d="m34.57,72.68l2.52,1.58c5.83-9.29,16.17-15.47,27.93-15.47s22.09,6.19,27.93,15.47l2.52-1.58c-6.36-10.13-17.63-16.87-30.45-16.87s-24.09,6.74-30.45,16.87Z"/><path class="cls-8" d="m39.62,75.84l2.52,1.58c4.78-7.61,13.25-12.68,22.88-12.68s18.1,5.07,22.88,12.68l2.52-1.58c-5.31-8.45-14.71-14.07-25.4-14.07s-20.09,5.63-25.4,14.07Z"/><path class="cls-8" d="m44.67,79l2.52,1.58c3.72-5.93,10.32-9.88,17.83-9.88s14.1,3.95,17.83,9.88l2.52-1.58c-4.25-6.77-11.79-11.28-20.35-11.28s-16.1,4.51-20.35,11.28Z"/><path class="cls-8" d="m49.71,82.16l2.52,1.58c2.67-4.25,7.4-7.08,12.78-7.08s10.11,2.83,12.78,7.08l2.52-1.58c-3.2-5.09-8.86-8.48-15.3-8.48s-12.11,3.39-15.3,8.48Z"/></g></svg>