<?xml version="1.0" encoding="UTF-8" standalone="no"?>
<!-- Created with Inkscape (http://www.inkscape.org/) -->

<svg
   width="16"
   height="16"
   viewBox="0 0 16 16"
   version="1.1"
   id="svg1"
   xml:space="preserve"
   inkscape:export-filename="error-32.png"
   inkscape:export-xdpi="192"
   inkscape:export-ydpi="192"
   inkscape:version="1.3.2 (091e20e, 2023-11-25, custom)"
   sodipodi:docname="error.svg"
   xmlns:inkscape="http://www.inkscape.org/namespaces/inkscape"
   xmlns:sodipodi="http://sodipodi.sourceforge.net/DTD/sodipodi-0.dtd"
   xmlns="http://www.w3.org/2000/svg"
   xmlns:svg="http://www.w3.org/2000/svg"><sodipodi:namedview
     id="namedview1"
     pagecolor="#505050"
     bordercolor="#ffffff"
     borderopacity="1"
     inkscape:showpageshadow="0"
     inkscape:pageopacity="0"
     inkscape:pagecheckerboard="1"
     inkscape:deskcolor="#505050"
     inkscape:document-units="px"
     inkscape:zoom="38.54361"
     inkscape:cx="6.7326335"
     inkscape:cy="8.4968689"
     inkscape:window-width="1920"
     inkscape:window-height="1057"
     inkscape:window-x="-8"
     inkscape:window-y="-8"
     inkscape:window-maximized="1"
     inkscape:current-layer="layer1" /><defs
     id="defs1" /><g
     inkscape:label="Livello 1"
     inkscape:groupmode="layer"
     id="layer1"><rect
       style="fill:#ffffff;fill-opacity:1;stroke:none;stroke-opacity:1"
       id="rect3"
       width="6.2007685"
       height="11.337807"
       x="4.929481"
       y="2.7241869" /><path
       fill-rule="evenodd"
       clip-rule="evenodd"
       d="M 8.0000003,15.586927 C 12.18983,15.586927 15.586927,12.18983 15.586927,8 15.586927,3.8101701 12.18983,0.41307279 8.0000003,0.41307279 3.8101704,0.41307279 0.41307308,3.8101701 0.41307308,8 c 0,4.18983 3.39709732,7.586927 7.58692722,7.586927 z M 6.8622679,11.786564 c 0,-0.6578 0.4998663,-1.1316 1.1308324,-1.1316 0.6447662,0 1.1446325,0.4738 1.1446325,1.1316 0,0.657799 -0.4998663,1.144632 -1.1446325,1.144632 -0.6309661,0 -1.1308324,-0.486833 -1.1308324,-1.144632 z M 7.3721008,3.4483036 c -0.2161998,0 -0.3886996,0.1801666 -0.3787329,0.3955997 l 0.2322997,5.3106959 c 0.00843,0.2031665 0.1755665,0.362633 0.3787331,0.362633 h 0.791966 c 0.2031664,0 0.3702997,-0.1594665 0.3787331,-0.362633 L 9.0066329,3.8439033 C 9.0165995,3.6284702 8.843333,3.4475369 8.6271332,3.4483036 Z"
       style="fill:#e74c3c;stroke-width:0.766666;fill-opacity:1"
       id="path1-8" /></g></svg>
