<?xml version="1.0" encoding="UTF-8" standalone="no"?>
<!-- Created with Inkscape (http://www.inkscape.org/) -->

<svg
   width="512"
   height="512"
   viewBox="0 0 135.46666 135.46667"
   version="1.1"
   id="svg1"
   inkscape:version="1.3.2 (091e20e, 2023-11-25, custom)"
   sodipodi:docname="allerta-meteo-liguria-icon.svg"
   inkscape:export-filename="allerta-meteo-liguria-icon-128.png"
   inkscape:export-xdpi="24"
   inkscape:export-ydpi="24"
   xmlns:inkscape="http://www.inkscape.org/namespaces/inkscape"
   xmlns:sodipodi="http://sodipodi.sourceforge.net/DTD/sodipodi-0.dtd"
   xmlns:xlink="http://www.w3.org/1999/xlink"
   xmlns="http://www.w3.org/2000/svg"
   xmlns:svg="http://www.w3.org/2000/svg">
  <sodipodi:namedview
     id="namedview1"
     pagecolor="#505050"
     bordercolor="#ffffff"
     borderopacity="1"
     inkscape:showpageshadow="0"
     inkscape:pageopacity="0"
     inkscape:pagecheckerboard="1"
     inkscape:deskcolor="#505050"
     inkscape:document-units="mm"
     inkscape:zoom="1.0847363"
     inkscape:cx="252.59595"
     inkscape:cy="244.75994"
     inkscape:window-width="1920"
     inkscape:window-height="1057"
     inkscape:window-x="-8"
     inkscape:window-y="-8"
     inkscape:window-maximized="1"
     inkscape:current-layer="layer1"
     inkscape:export-bgcolor="#ffffffff" />
  <defs
     id="defs1">
    <linearGradient
       id="linearGradient24"
       inkscape:collect="always">
      <stop
         style="stop-color:#ffffff;stop-opacity:1;"
         offset="0.88501745"
         id="stop24" />
      <stop
         style="stop-color:#757575;stop-opacity:1;"
         offset="1"
         id="stop25" />
    </linearGradient>
    <linearGradient
       id="linearGradient11"
       inkscape:collect="always">
      <stop
         style="stop-color:#e00000;stop-opacity:1;"
         offset="0"
         id="stop12" />
      <stop
         style="stop-color:#7a0000;stop-opacity:1;"
         offset="1"
         id="stop13" />
    </linearGradient>
    <linearGradient
       id="linearGradient9"
       inkscape:collect="always">
      <stop
         style="stop-color:#ff8c00;stop-opacity:1;"
         offset="0"
         id="stop10" />
      <stop
         style="stop-color:#995400;stop-opacity:1;"
         offset="1"
         id="stop11" />
    </linearGradient>
    <linearGradient
       id="linearGradient7"
       inkscape:collect="always">
      <stop
         style="stop-color:#ffd800;stop-opacity:1;"
         offset="0"
         id="stop8" />
      <stop
         style="stop-color:#998200;stop-opacity:1;"
         offset="0.99825782"
         id="stop9" />
    </linearGradient>
    <linearGradient
       id="linearGradient6"
       inkscape:collect="always">
      <stop
         style="stop-color:#6bb800;stop-opacity:1"
         offset="0"
         id="stop6" />
      <stop
         style="stop-color:#447500;stop-opacity:1;"
         offset="1"
         id="stop7" />
    </linearGradient>
    <radialGradient
       inkscape:collect="always"
       xlink:href="#linearGradient6"
       id="radialGradient7"
       cx="-86.323174"
       cy="-92.359756"
       fx="-86.323174"
       fy="-92.359756"
       r="16.816202"
       gradientUnits="userSpaceOnUse"
       gradientTransform="matrix(2.0153521,0.01534526,-0.0153454,2.0153715,86.231114,95.104121)" />
    <radialGradient
       inkscape:collect="always"
       xlink:href="#linearGradient7"
       id="radialGradient9"
       cx="-92.704704"
       cy="86.150703"
       fx="-92.704704"
       fy="86.150703"
       r="16.816202"
       gradientUnits="userSpaceOnUse"
       gradientTransform="matrix(1.9845885,-0.01022862,0.01025641,1.989981,90.392391,-86.235797)" />
    <radialGradient
       inkscape:collect="always"
       xlink:href="#linearGradient9"
       id="radialGradient11"
       cx="86.150703"
       cy="92.532227"
       fx="86.150703"
       fy="92.532227"
       r="16.816202"
       gradientUnits="userSpaceOnUse"
       gradientTransform="matrix(1.9947365,0.02536552,-0.02562791,2.0153713,-83.32584,-96.139823)" />
    <radialGradient
       inkscape:collect="always"
       xlink:href="#linearGradient11"
       id="radialGradient13"
       cx="92.532227"
       cy="-86.150703"
       fx="92.532227"
       fy="-86.150703"
       r="16.816202"
       gradientUnits="userSpaceOnUse"
       gradientTransform="matrix(1.9641225,0.00500848,-0.00503455,1.9743452,-89.646138,83.477081)" />
    <radialGradient
       inkscape:collect="always"
       xlink:href="#linearGradient24"
       id="radialGradient25"
       cx="86.236856"
       cy="92.273696"
       fx="86.236856"
       fy="92.273696"
       r="33.804914"
       gradientUnits="userSpaceOnUse" />
  </defs>
  <g
     inkscape:label="Livello 1"
     inkscape:groupmode="layer"
     id="layer1">
    <g
       id="g1"
       transform="matrix(0.66746596,-0.35630672,0.33133389,0.71777326,-4.3231601,34.879072)">
      <g
         id="layer3"
         transform="matrix(0.26458333,0,0,0.26458333,-71.130311,-5.4052115)">
        <path
           id="Provincia_di_Imperia"
           class="cls-2"
           d="m 317.53,361.68 -0.13,1.37 -0.61,0.67 -0.64,1.34 -1.12,1.02 -0.38,0.61 -0.61,0.32 -1.85,0.48 -0.96,0.48 -1.95,0.32 -0.45,1.05 -1.44,0.73 -1.85,0.51 -1.21,0.41 -2.14,2.11 -1.66,1.63 -0.89,0.93 -0.32,2.55 0.77,0.57 v 0.96 l -0.64,0.73 -0.73,0.67 -0.99,0.8 -1.18,0.29 -1.02,0.64 -2.81,0.19 h -3.35 l -2.52,0.57 -1.56,0.7 -1.15,0.61 -1.05,0.61 -1.31,1.15 -0.51,0.45 0.1,0.48 1.18,0.29 -0.13,0.32 -0.51,0.41 -1.56,0.48 -1.31,0.83 -2.11,0.77 -1.18,0.57 -2.33,0.83 -2.27,0.45 -1.91,1.02 -2.3,0.54 -1.75,0.54 -0.45,1.5 -0.22,1.31 -0.8,0.64 -0.67,0.54 -1.85,0.51 -1.34,0.61 -0.51,0.51 -2.65,0.13 -0.89,0.32 -3.67,0.16 -2.17,0.13 -0.51,0.57 -0.96,0.96 -0.86,0.8 -0.96,1.12 -0.83,0.32 h -2.01 l -0.89,-0.64 -0.73,-0.26 -1.95,0.06 -0.57,0.8 -0.51,-0.1 -0.83,-0.73 -0.89,-0.1 -1.6,0.7 -1.21,0.57 -1.53,0.64 -0.89,0.93 -2.27,0.26 -1.91,0.64 -0.64,0.51 -0.89,0.26 -0.57,0.64 -0.41,1.5 -0.35,0.54 -0.67,0.54 -0.45,0.93 -0.38,0.77 h -1.44 l -1.31,-0.51 -1.37,-1.24 -1.21,-1.08 -1.69,-0.29 -0.73,-0.77 h -2.23 l -1.37,0.73 -2.23,0.41 -1.88,0.77 -1.5,0.99 -2.42,0.77 -1.18,1.56 -0.77,0.64 -0.54,0.22 -0.54,0.64 -2.55,-0.16 -0.67,0.83 -0.22,0.89 -0.41,1.12 -1.6,0.06 -0.61,0.57 -0.26,0.8 -0.29,0.8 -1.37,0.26 -0.93,-0.57 c 0,0 -2.2,-0.32 -2.39,-0.32 -0.19,0 -0.38,-0.54 -0.38,-0.54 l -1.63,-0.26 -1.12,-0.83 -2.68,0.16 -0.54,0.57 -1.82,0.06 -0.38,0.64 -1.02,1.06 -0.28,0.49 c 0,0 0.63,0.5 0.68,0.54 0.05,0.05 0.09,0.35 0.09,0.35 l -0.59,0.39 -0.54,0.99 h -1.26 l -2.39,2.41 -1.02,1.71 -0.59,0.76 -1.66,0.26 -1.91,-0.06 -1.21,-0.89 -1.02,-0.51 -1.02,-0.77 -3.51,-0.32 -1.72,-0.57 -1.08,-0.38 -2.17,-0.13 -1.53,-0.26 -1.79,-1.15 -2.3,-0.45 -2.49,-0.38 -1.6,-0.96 -1.15,-0.06 -1.02,-0.7 h -5.49 l -1.21,0.64 -1.08,0.77 -0.96,0.83 -0.38,1.28 -0.19,1.28 -0.89,1.53 -1.15,-0.13 -0.64,-0.7 -1.21,-0.19 -1.85,-0.51 -1.66,-0.57 -1.34,-0.57 v -1.53 l -0.32,-1.4 -0.57,-1.85 -2.42,-3.19 -0.19,-3.83 -0.77,-1.6 -0.77,-2.04 -0.57,-2.04 -0.06,-1.34 -0.57,-1.98 v -4.27 l -0.83,-0.32 -1.15,-0.83 -1.08,-0.96 v -2.17 l -0.64,-0.38 -0.06,-1.85 v -1.85 l 0.77,-1.02 0.51,-0.64 v -1.6 l 0.51,-0.96 0.51,-1.15 1.08,-1.02 1.53,-1.28 1.4,-1.6 1.15,-1.21 1.91,-0.96 1.66,-0.77 1.15,-0.32 1.72,-0.38 0.83,-0.57 2.62,-0.32 1.15,-0.51 0.64,-0.64 0.7,-0.13 1.4,-0.77 0.38,-0.19 v -0.64 l -0.64,-0.38 -0.06,-1.66 v -1.21 l -0.7,-0.57 -0.32,-0.57 v -2.11 l 0.64,-0.57 1.4,-1.02 0.83,-0.89 0.13,-1.02 0.77,-0.32 -0.19,-2.3 0.83,-0.64 v -1.72 l -0.77,-0.64 -0.96,-1.02 0.32,-1.72 0.7,-0.57 h 0.77 l 0.51,-0.7 0.77,-0.19 0.13,-0.51 h 0.7 l 0.45,0.64 0.57,0.32 0.38,-1.53 0.32,-0.96 1.08,-0.77 1.21,-0.13 0.83,-0.7 h 2.87 l 1.08,0.83 0.45,0.26 0.57,-1.02 2.11,-0.7 3.38,-1.21 0.38,-0.64 1.34,-0.64 1.15,-0.83 0.26,-1.08 0.77,-0.96 0.57,-0.19 0.57,-0.57 1.08,0.13 0.7,0.45 h 0.7 l 1.08,-1.66 0.38,-0.57 -0.77,-0.96 v -2.23 l 1.02,-0.89 0.38,-0.89 1.28,-1.21 1.47,-1.72 1.02,-0.7 -0.77,-1.21 -0.06,-2.17 -0.64,-0.64 -0.19,-2.04 -0.77,-1.34 -0.19,-3.64 v -2.42 l 0.7,-0.83 h 1.66 l 1.21,-0.57 1.15,-0.13 1.28,-0.83 1.53,-0.7 0.64,-0.51 1.08,-0.7 0.96,-0.77 0.57,-0.7 0.77,-0.06 0.57,-0.64 0.45,-1.15 0.57,-0.7 -0.13,-1.66 0.7,-0.57 0.06,-0.89 0.77,-0.77 1.08,-0.83 1.51,-0.05 2.32,0.07 0.45,0.43 0.63,0.47 0.2,-0.47 0.25,-0.81 c 0,0 0.14,-2.37 0.25,-2.46 0.11,-0.09 0.79,-0.79 0.79,-0.79 0,0 0.8,-1.55 1.06,-2.19 0.26,-0.64 1.02,-0.89 1.02,-0.89 l 1.48,-0.59 1.02,-0.65 1.94,-0.54 0.19,-0.51 c 0,0 1.56,0.06 1.63,-0.06 0.06,-0.13 0.32,-1.02 0.32,-1.02 h -1.05 c 0,0 -1.4,-0.03 -1.53,-0.03 h -1.56 l -1.05,0.8 -2.14,0.26 -1.18,-0.45 -0.7,-1.31 -0.32,-1.5 -1.02,-1.53 -1.24,-2.11 -1.05,-1.31 0.16,-3.19 0.77,-0.83 1.05,-1.37 -0.06,-2.87 0.06,-1.47 0.73,-1.05 0.57,-0.41 2.14,-0.06 1.85,-0.51 0.93,-0.86 0.29,-1.47 0.8,-0.54 1.15,-0.45 1.63,-0.73 0.67,-0.51 2.14,-0.16 2.49,0.13 1.15,0.73 1.02,0.48 0.86,0.61 1.08,0.77 0.61,0.41 0.77,0.29 0.73,0.89 1.34,0.32 1.24,0.73 0.67,0.67 1.02,0.32 1.28,0.51 0.86,0.89 0.35,0.35 1.79,0.03 0.67,0.35 1.4,0.38 1.44,0.41 0.73,0.32 h 1.21 l 0.7,-0.64 0.86,-0.32 1.69,0.1 0.73,0.64 1.6,0.29 1.15,0.32 1.53,0.19 0.96,0.73 0.86,0.13 0.64,0.73 1.15,0.51 0.86,0.32 0.26,1.37 0.45,0.99 0.1,0.86 0.83,0.16 0.51,-0.67 2.17,-0.19 1.18,-0.73 h 2.2 l 0.99,-0.51 2.14,-0.06 0.45,0.57 0.89,0.03 0.73,-0.61 0.83,-0.06 0.77,0.57 0.61,0.96 0.41,0.89 0.86,1.28 h 0.8 l 0.7,0.67 0.93,0.03 0.64,-0.61 0.89,-0.22 0.61,-0.67 h 0.8 l 0.38,0.8 0.41,0.06 0.51,-0.77 0.7,-0.06 0.51,-0.51 0.54,-0.89 0.38,-0.99 0.51,-0.64 0.7,-0.61 0.99,-0.19 0.45,-0.48 0.41,0.1 0.67,0.86 0.38,0.64 1.18,0.26 1.88,0.19 1.12,0.67 0.96,0.38 0.77,0.67 0.73,0.51 1.21,0.54 1.44,0.06 0.7,-0.51 0.73,-0.86 0.8,-1.5 0.03,-0.64 0.7,-0.71 0.77,0.11 0.25,0.83 0.65,0.68 0.02,3.97 0.05,1.44 1.44,0.25 1.2,0.07 0.09,2.19 0.64,0.83 0.26,0.64 0.32,0.32 0.32,2.42 0.45,1.15 0.32,3.13 -0.13,2.81 -0.64,1.21 -0.51,1.02 -0.64,0.7 -0.7,0.38 -0.34,1.35 -0.61,1.44 -1.35,0.63 -0.29,0.47 -0.68,0.47 -0.52,-0.23 -0.5,-0.52 -0.07,0.54 -0.32,0.86 -0.65,1.35 -0.54,1.24 -1.44,0.72 -1.96,0.65 -1.15,0.36 -2.48,0.09 -0.77,0.47 -0.45,1.08 -0.11,1.29 -1.02,0.34 -0.59,1.44 -0.83,0.61 -0.63,0.41 0.07,0.81 0.68,0.65 0.23,1.31 0.47,0.5 0.34,0.45 1.42,0.2 0.5,0.95 0.77,0.5 0.61,0.61 0.16,0.54 0.65,0.56 0.88,0.25 0.97,0.79 0.41,0.7 0.14,2.01 0.45,0.68 0.47,0.99 0.45,0.61 0.25,1.02 0.59,0.56 0.45,0.92 0.81,0.99 0.56,0.77 1.71,0.07 1.02,-0.47 0.9,-0.52 2.23,-0.16 1.99,0.41 0.79,0.68 c 0,0 1.11,-0.16 1.2,-0.16 0.09,0 1.2,-0.61 1.2,-0.61 l 1.11,-0.74 2.73,-0.11 2.05,0.14 0.45,0.88 h 1.06 l 0.9,-0.83 1.69,0.02 0.72,0.61 0.9,0.36 0.92,0.95 1.35,0.52 0.61,0.92 1.17,0.34 1.96,1.56 0.65,1.38 1.02,2.05 1.06,1.15 0.54,1.08 1.15,0.95 -0.02,2.44 -0.11,2.71 0.23,2.23 h 1.4 l 1.42,-0.23 0.85,0.09 v 0 z"
           style="fill:#6cb700;fill-rule:evenodd;stroke:#000000;stroke-linejoin:round" />
      </g>
      <g
         id="layer4"
         transform="matrix(0.26458333,0,0,0.26458333,-71.130311,-5.4052115)">
        <path
           id="Provincia_di_Savona"
           class="cls-2"
           d="m 471.38,175.33 h 0.21 c 0,0 -0.22,-0.94 -0.22,-0.94 l -0.8,-0.16 -0.89,-0.54 -1.02,-0.73 c 0,0 -0.54,-0.67 -0.77,-0.67 -0.23,0 -1.28,-0.64 -1.4,-0.77 -0.13,-0.13 -1.37,-0.89 -1.37,-0.89 l -0.77,-0.67 -1.6,-0.77 -0.83,-0.86 -0.67,-1.31 -0.86,-1.21 -0.96,-1.44 c 0,0 0.19,-2.33 0.19,-2.55 0,-0.22 -0.8,-2.2 -0.8,-2.2 l -0.06,-1.79 -0.64,-0.93 c 0,0 -0.29,-1.79 -0.35,-1.91 -0.06,-0.12 -0.67,-0.61 -0.67,-0.61 l -0.67,-0.64 0.1,-0.41 0.93,0.26 0.99,0.7 1.4,0.13 0.73,-0.29 1.66,-0.45 1.6,0.13 -0.03,-1.53 -0.89,-0.61 v -0.99 h 1.79 l 0.64,-0.57 h 4.88 l 1.02,-0.8 4.37,-0.13 1.4,-0.99 1.21,-0.48 1.05,-0.86 1.12,-0.32 0.96,-1.05 0.48,-2.48 c 0,0 0.32,-0.27 0.36,-0.63 0.05,-0.36 0.23,-1.58 0.23,-1.58 l -0.68,-0.41 -1.13,-0.36 v -3.56 c 0,0 -0.63,0.09 -0.63,-0.63 0,-0.72 -0.09,-4.29 -0.09,-4.29 l 0.81,-1.31 0.18,-0.99 -0.86,-0.54 -0.09,-1.53 -0.45,-0.41 0.05,-1.71 -0.72,-0.68 -0.41,-0.99 -0.63,-1.04 -4.51,-0.23 -3.16,0.41 -0.63,0.45 -1.13,0.09 -0.63,0.54 -0.81,0.05 -0.36,-0.63 -0.59,-0.27 -0.18,-0.54 h -0.5 v -0.86 l 0.68,-0.23 0.09,-0.5 -1.13,0.09 -1.35,0.27 -0.81,0.59 -0.36,0.09 -0.77,0.63 -0.68,0.81 v 0.77 h 0.72 l 0.18,0.77 0.72,0.54 -0.14,0.36 -0.68,0.41 -1.35,-0.09 h -1.31 l -0.81,-0.81 h -0.68 c 0,0 -1.22,-0.45 -1.4,-0.45 -0.18,0 -0.36,-0.86 -0.36,-0.86 l -0.95,-1.4 -0.59,-1.4 0.09,-1.31 -0.72,-0.15 -0.73,0.65 -1.22,0.09 -0.72,0.68 -0.81,0.09 -0.59,0.63 -0.95,0.77 -2.3,-0.27 -0.36,-0.5 -0.72,-0.14 -0.32,-1.49 -0.41,-0.36 -0.18,-0.81 -0.59,-0.27 -0.99,-0.5 -1.71,-0.14 c 0,0 -1.17,0.45 -1.35,0.5 -0.18,0.05 -2.93,0.63 -2.93,0.63 l -3.61,0.54 -4.15,-0.14 -1.35,-0.72 -1.85,-0.14 -0.32,-0.54 -0.99,-0.68 -0.5,-1.17 -1.08,-0.32 -0.45,-1.31 -0.14,-0.95 h -0.86 l -0.54,0.59 -0.27,0.41 c 0,0 -1.13,0.68 -1.31,0.68 -0.18,0 -0.77,0.99 -0.95,1.13 -0.18,0.14 -0.99,1.26 -0.99,1.26 l -0.45,1.13 -0.45,1.31 -0.41,0.9 0.14,3.74 -0.5,-0.18 -0.32,-0.72 -1.17,-0.14 -0.86,-0.81 -1.17,-0.54 -1.67,-0.45 -1.62,-0.99 -1.62,-0.41 0.09,-0.68 -0.54,-1.17 -0.27,-0.81 -1.26,0.18 -0.77,0.54 -1.94,0.63 -0.81,0.09 -0.5,0.9 -0.54,2.44 v 3.97 l -0.36,0.45 -1.67,0.05 -0.9,0.68 -0.59,0.77 0.09,1.31 0.59,0.45 0.86,0.81 -0.05,1.22 -0.63,0.45 -2.35,0.23 c 0,0 -0.45,0.45 -0.59,0.63 -0.14,0.18 -1.67,0.09 -1.67,0.09 l -0.54,0.59 -0.63,0.68 -0.68,1.35 -0.99,0.5 -1.22,0.54 -0.36,0.59 -1.08,-0.05 -0.81,-1.17 -0.05,-1.76 -0.9,-1.76 -0.77,-1.8 -0.45,-1.76 -1.44,-0.41 -1.17,-0.54 -0.95,-0.72 -2.62,0.14 -0.63,0.54 -1.35,-0.14 -1.31,-1.49 -0.23,-0.81 -1.04,-2.08 -0.72,-0.72 -1.35,-1.04 -0.45,-0.86 h -1.13 l -0.41,0.81 -2.39,-0.32 -1.85,-0.81 -2.93,-0.81 -2.21,-0.41 -0.05,-1.31 -0.59,-0.54 -0.18,-1.58 -0.45,-0.68 -0.95,-0.63 -0.5,-0.72 -1.04,-0.68 -0.1,-1.05 -0.61,-0.38 -0.03,-0.99 -0.61,-0.57 h -0.48 l -0.38,0.8 -1.21,0.64 -0.96,0.86 -0.99,0.73 -0.61,0.96 -1.53,0.93 -1.95,0.13 -1.08,0.73 -0.45,1.63 -0.45,1.95 -0.8,1.05 -0.45,0.99 v 2.27 l 0.38,0.7 0.26,1.28 0.83,0.93 0.61,1.21 -0.67,0.67 -0.61,0.51 -0.32,0.86 -0.67,0.06 -1.44,0.93 -1.28,0.57 -2.71,0.26 -0.16,2.71 -0.1,1.18 -0.61,0.29 0.1,1.31 0.57,0.61 0.48,0.61 0.8,0.7 0.89,0.26 0.77,0.67 0.64,0.77 0.03,2.27 -0.83,0.83 0.41,0.67 1.12,0.96 0.73,0.93 0.73,2.17 0.8,1.12 c 0,0 0.64,0.86 0.73,0.99 0.09,0.13 -0.1,1.63 -0.1,1.63 l -0.45,0.38 -0.26,0.96 h -0.64 l -0.51,0.51 -2.07,2.07 -0.16,3.76 -1.05,1.24 -0.67,0.83 -1.21,1.4 -1.18,0.8 -0.77,1.24 -1.6,1.02 -1.12,-0.13 -0.51,-0.77 -0.77,-0.1 -0.54,0.64 -2.01,0.89 -1.34,1.05 -0.77,1.69 -1.22,1.01 -2.98,0.45 -0.18,3.52 -0.36,0.63 -1.62,1.17 -1.35,1.17 0.99,1.17 0.63,1.35 0.9,0.9 0.18,3.43 -0.72,0.81 -0.72,1.99 -0.81,0.99 -0.86,0.14 -0.5,1.31 -0.14,1.49 -0.5,0.72 -0.25,1.56 -0.91,0.09 -0.51,-0.79 -2.12,-0.32 -3.33,0.23 -1.84,0.12 -0.21,0.54 -0.43,0.68 0.03,1.87 c 0,0 0.57,1.31 0.7,1.5 0.13,0.19 0.51,0.73 0.51,0.73 l 0.26,2.49 -0.64,0.51 -0.61,1.02 -0.64,0.96 -0.16,2.84 -0.48,0.38 -0.89,-0.16 -1.24,-0.89 -1.44,-0.7 -1.12,-0.38 -0.7,-0.38 -0.1,-1.69 -0.54,-0.22 -0.41,-0.8 -0.41,-0.7 -1.75,0.13 -0.35,0.67 -0.64,0.67 -0.03,1.02 -0.96,1.02 -1.08,0.77 -0.22,0.99 c 0,0 -0.8,0.48 -0.8,0.61 0,0.13 0.19,2.14 0.19,2.14 l 0.48,0.51 0.26,2.39 3.45,0.19 0.51,0.32 0.64,1.24 0.7,0.86 v 2.39 l 1.18,0.13 0.96,0.86 1.21,0.26 -0.06,0.38 -0.51,0.67 -0.73,0.45 -0.13,1.91 -0.61,0.83 -0.73,0.77 -0.93,0.73 -1.56,0.45 -1.37,0.61 -0.54,0.48 -0.77,0.61 -0.77,0.64 -0.06,1.15 1.47,0.48 0.41,0.54 0.86,0.96 1.63,1.24 0.86,0.8 -0.06,1.95 -0.45,0.77 -0.67,1.37 -1.31,1.12 -1.44,1.37 -0.7,1.53 0.06,3.03 0.57,1.6 0.61,1.47 0.64,1.4 2.2,0.73 2.65,0.35 c 0,0 0.35,0.35 0.48,0.41 0.13,0.06 0.89,0.86 0.89,0.86 l 0.7,0.7 -0.03,1.44 -0.51,0.35 -0.57,1.31 0.29,2.07 0.77,1.34 0.77,1.28 0.16,1.15 -0.41,0.7 -1.15,0.13 -0.7,0.83 -0.7,0.8 -1.37,0.54 -0.48,1.02 -0.96,0.35 -0.73,1.53 -0.73,1.34 c 0,0 -0.29,4.59 -0.29,4.75 0,0.16 -0.7,1.21 -0.7,1.21 l -0.7,0.51 -2.42,0.26 -2.46,0.83 -3.45,-0.26 -0.22,-0.54 -0.45,-0.51 -0.45,-0.54 -0.48,-1.05 -0.54,-0.06 -0.99,-0.77 -1.05,-1.24 -1.44,-0.41 -1.91,-0.61 -2.39,0.03 c 0,0 -0.41,0.38 -0.51,0.61 -0.1,0.23 -1.79,0.77 -1.79,0.77 l -0.99,0.51 -1.12,0.7 c 0,0 -0.77,1.05 -0.86,1.18 -0.09,0.13 -1.15,1.02 -1.15,1.02 l -0.93,0.99 -0.99,1.05 -1.08,0.48 v 0.64 l 0.06,1.28 3.06,0.51 0.41,1.98 0.8,0.45 c 0,0 0.48,0.54 0.61,0.7 0.13,0.16 3.32,-0.13 3.32,-0.13 l 0.72,0.63 0.95,0.94 -0.46,1.88 -1,0.16 -1.59,0.19 -0.07,1.35 1.3,0.39 1.29,0.53 0.57,0.57 h 0.69 c 0,0 0.71,-0.73 0.71,-0.73 l 0.77,0.11 0.25,0.83 0.65,0.68 0.02,3.97 0.05,1.44 1.44,0.25 1.2,0.07 0.09,2.19 0.64,0.83 0.26,0.64 0.32,0.32 0.32,2.42 0.45,1.15 0.32,3.13 -0.13,2.81 -0.64,1.21 -0.51,1.02 -0.64,0.7 -0.7,0.38 -0.34,1.35 -0.61,1.44 -1.35,0.63 -0.29,0.47 -0.68,0.47 -0.52,-0.23 -0.5,-0.52 -0.07,0.54 -0.32,0.86 -0.65,1.35 -0.54,1.24 -1.44,0.72 -1.96,0.65 -1.15,0.36 -2.48,0.09 -0.77,0.47 -0.45,1.08 -0.11,1.29 -1.02,0.34 -0.59,1.44 -0.83,0.61 -0.63,0.41 0.07,0.81 0.68,0.65 0.23,1.31 0.47,0.5 0.34,0.45 1.42,0.2 0.5,0.95 0.77,0.5 0.61,0.61 0.16,0.54 0.65,0.56 0.88,0.25 0.97,0.79 0.41,0.7 0.14,2.01 0.45,0.68 0.47,0.99 0.45,0.61 0.25,1.02 0.59,0.56 0.45,0.92 0.81,0.99 0.56,0.77 1.71,0.07 1.02,-0.47 0.9,-0.52 2.23,-0.16 1.99,0.41 0.79,0.68 c 0,0 1.11,-0.16 1.2,-0.16 0.09,0 1.2,-0.61 1.2,-0.61 l 1.11,-0.74 2.73,-0.11 2.05,0.14 0.45,0.88 h 1.06 l 0.9,-0.83 1.69,0.02 0.72,0.61 0.9,0.36 0.92,0.95 1.35,0.52 0.61,0.92 1.17,0.34 1.96,1.56 0.65,1.38 1.02,2.05 1.06,1.15 0.54,1.08 1.15,0.95 -0.02,2.44 -0.11,2.71 0.23,2.23 h 1.4 l 1.42,-0.23 0.86,0.07 v -2.31 c 0,0 1.45,-0.77 1.45,-0.77 l 0.79,-0.67 1.12,-1.16 h 1.61 l 0.89,-0.71 4.2,-0.09 0.71,-0.54 h 0.71 l 0.36,-1.43 -0.8,-0.8 -1.43,-1.16 -0.8,-0.98 v -0.71 l -0.63,-0.89 -0.36,-0.8 -0.92,-1.65 -0.04,-3.06 0.65,-0.65 0.22,-2.46 0.71,-2.64 c 0,0 0.45,-0.27 0.54,-0.45 0.09,-0.18 0.45,-1.34 0.45,-1.34 l 1.21,-1.43 0.36,-0.31 0.54,-1.21 0.4,-1.03 h 0.49 c 0,0 0.27,-0.58 0.45,-0.8 0.18,-0.22 0.71,-0.71 0.71,-0.71 l 0.58,-0.76 0.54,-0.45 1.92,0.04 0.94,-0.09 0.63,-0.63 0.22,-0.89 -0.58,-0.4 -0.04,-1.21 0.76,-0.94 0.54,-0.36 0.04,-1.07 0.54,-0.63 1.03,-0.67 0.89,-0.94 0.58,-0.71 c 0,0 1.12,-0.27 1.3,-0.45 0.18,-0.18 1.3,-0.71 1.3,-0.71 l 1.07,-0.85 0.36,-0.63 0.67,-0.63 0.8,-0.18 0.49,-0.45 0.22,-0.98 -0.09,-2.55 -0.54,-0.76 -0.38,-1.76 -0.07,-4.53 0.89,-0.89 0.2,-4.62 0.54,-0.89 0.16,-2.17 c 0,0 0.78,-1.14 0.74,-1.25 -0.04,-0.11 0.54,-2.05 0.54,-2.05 l 0.76,-1.72 1.05,-0.92 0.36,-0.4 0.47,-1.16 0.67,-1.41 0.78,-1.43 0.6,-1.52 1.81,-1.56 0.63,-0.74 0.45,-1.3 1.18,-1.32 0.54,-0.38 0.45,-1.76 0.65,-1.47 1.52,-1.63 1.5,-1.36 1.18,-0.42 1.36,-1.43 1.5,-0.71 0.58,-1.07 1.59,-0.45 1.7,-0.45 0.51,-0.56 1.34,-0.38 1.36,-0.54 1.7,-0.29 1.45,-0.6 1.3,-0.56 0.8,-0.47 1.59,-0.45 0.85,-0.63 1.25,-1.07 2.41,-0.8 2.5,-0.76 1.99,-0.36 0.8,-0.4 0.51,-0.76 0.4,-0.63 0.71,-0.27 0.38,-0.45 1.54,-0.2 1.67,-0.65 3.95,-0.04 1.52,-0.22 1.59,-0.78 0.4,-1.27 0.74,-0.38 0.94,-0.6 0.87,-0.78 1.14,-0.36 0.56,-0.65 1.09,-0.36 c 0,0 0.4,-1.32 0.33,-1.41 -0.07,-0.09 -0.65,-0.74 -0.69,-0.83 -0.04,-0.09 -1.61,-0.27 -1.61,-0.27 l -0.67,-0.74 -0.11,-1.34 -0.16,-5.4 0.4,-2.41 1.05,-1.74 0.83,-0.96 0.16,-1.03 0.63,-0.6 2.28,-0.85 1.54,-0.4 0.42,-0.69 0.71,-0.02 0.45,0.56 0.13,1.81 c 0,0 0.4,0.09 0.45,0 0.05,-0.09 0.4,-0.63 0.4,-0.63 l 0.22,-0.65 -0.54,-0.27 c 0,0 -0.31,-1.59 -0.31,-1.67 0,-0.08 0.54,-0.63 0.54,-0.63 l 0.49,-1.76 0.74,-2.05 0.67,-1.59 0.83,-1.41 0.13,-1.21 -1.12,-1.05 c 0,0 -1.72,-0.29 -1.88,-0.38 -0.16,-0.09 -0.98,-1.52 -0.98,-1.52 l -0.18,-2.03 0.22,-2.88 1,-0.8 0.74,-1.7 1.23,-2.03 0.96,-0.76 0.54,-0.74 1.7,-0.58 1.88,-1.45 1.34,-0.87 2.19,-0.58 1.43,-0.71 1.27,-1.18 0.87,-0.18 0.63,-0.67 c 0,0 1.21,-0.98 1.21,-1.07 0,-0.09 0.13,-2.37 0.13,-2.37 l -0.69,-0.67 -0.04,-0.83 0.89,-0.85 0.56,-0.63 1.14,-1.23 1.25,-0.98 0.42,-0.42 0.96,-0.47 2.3,-0.42 1.21,-0.4 1.65,-0.42 1.09,-0.71 1.47,-0.65 1.21,-0.71 c 0,0 1.03,-1.36 1.05,-1.45 0.02,-0.09 1.27,-0.47 1.27,-0.47 l 0.58,-0.6 2.41,-0.27 1.74,-0.58 0.4,-1.56 0.38,-0.45 0.29,-2.55 0.76,-0.54 1.56,-0.33 3.01,-0.09 0.74,-0.69 2.41,-0.47 1.41,-0.71 0.87,-0.56 0.36,-0.63 1.14,-0.38 1.36,-0.58 1.38,-0.89 1.53,-0.6 1.34,-0.69 0.63,-0.73 0.74,-1.47 1.01,-0.21 v 0 z m -126.71,150.87 0.11,-1.94 1.27,0.02 0.29,0.54 0.4,0.31 v 0.54 h -1.03 l -0.29,0.58 -0.42,0.13 z"
           style="fill:#6cb700;fill-rule:evenodd;stroke:#000000;stroke-linejoin:round" />
      </g>
      <g
         id="layer5"
         transform="matrix(0.26458333,0,0,0.26458333,-71.130311,-5.4052115)">
        <path
           id="Provincia_di_Genova"
           class="cls-2"
           d="m 729.79,162.18 -0.63,0.72 c 0,0 -0.76,0.6 -0.85,0.69 -0.09,0.09 -1.05,0.47 -1.05,0.47 l -0.71,0.49 -0.47,0.54 v 0.49 c 0,0.09 0.38,0.4 0.38,0.4 l 0.29,1.47 0.89,0.58 c 0,0 0.54,0.49 0.67,0.58 0.13,0.09 0.13,1.47 0.13,1.47 l -0.31,1.07 -0.92,0.09 -0.11,0.36 c 0,0 0.22,0.27 0.54,0.54 0.32,0.27 0.85,0.94 0.85,0.94 l 0.63,0.27 1.12,0.54 0.54,0.54 0.76,-0.13 0.63,-0.58 0.45,-0.36 0.49,-0.27 0.71,0.54 0.09,0.89 0.63,0.54 -0.04,3.93 0.71,1.25 0.71,0.63 0.49,0.58 0.98,0.36 0.58,0.58 1.07,0.89 0.71,0.27 1.16,0.76 0.54,0.67 0.18,1.16 -0.36,0.36 -0.58,1.47 -0.49,1.03 -0.36,0.45 -0.22,0.71 -1.16,0.36 -1.16,0.85 -0.71,0.85 -0.22,3.89 -0.54,0.36 v 0.94 l 0.67,0.58 1.43,0.31 0.67,0.8 0.89,0.27 0.36,0.54 1.25,1.16 1.12,1.03 0.76,1.38 0.27,1.88 1.34,1.43 1.03,0.36 0.85,0.94 1.34,1.07 0.71,0.09 0.85,0.85 0.98,0.54 1.21,0.71 1.07,0.36 0.45,1.34 0.67,0.8 -0.04,2.32 0.63,1.21 0.67,0.58 c 0,0 0.67,0.54 0.8,0.71 0.13,0.17 1.16,0.31 1.34,0.49 0.18,0.18 0.27,1.07 0.27,1.07 l 1.16,0.18 0.58,2.32 0.18,4.56 -0.31,1.7 h -0.27 l -0.4,-0.8 -0.85,-0.04 -0.54,-0.63 -0.94,-0.18 -0.54,-0.58 -0.94,-0.18 -2.14,0.09 -0.54,0.67 -1.03,-0.04 -2.1,0.4 -0.85,0.27 -0.31,0.45 -0.63,0.36 -0.22,1.83 -0.36,0.27 -0.36,1.34 -0.4,0.09 -0.18,0.71 -0.58,0.63 -0.31,0.85 -0.63,0.58 0.04,0.85 0.89,0.76 0.63,0.63 -0.22,2.37 -0.31,0.22 -0.54,0.54 -0.65,0.89 -0.87,0.71 -0.82,0.69 -0.82,0.83 -0.82,0.98 -0.37,-0.67 -0.49,-0.76 -0.54,-0.63 -1.12,-0.18 -0.45,-0.54 -0.67,-0.67 -0.27,-1.12 -0.36,-0.31 -0.04,-1.21 -0.13,-0.94 -0.49,-0.49 -0.18,-0.4 -0.54,-0.4 -0.76,-0.58 -0.94,-0.85 -1.47,-0.36 -0.36,-0.67 -0.4,-0.09 -0.49,0.94 -0.13,0.45 -0.67,0.4 -0.13,0.54 -0.49,0.85 -0.36,0.58 h -0.58 l -0.67,-0.54 -0.8,-0.27 -0.31,-0.4 -1.07,-0.4 -0.49,-0.63 -0.8,0.04 -0.49,-0.67 -1.74,0.13 -0.49,0.63 -1.16,-0.18 -0.36,-0.45 -0.63,-0.58 -0.63,-0.71 -0.71,-1.43 -1.16,-1.61 -0.4,-1.16 -0.54,-0.89 -0.76,-0.63 -1.21,-0.67 -1.34,-0.4 -0.49,-0.67 h -1.12 l -0.63,0.63 -0.45,0.85 -1.43,0.18 -0.54,0.54 -1.03,-0.09 -0.09,-1.07 -0.18,-0.89 -0.22,-1.43 -0.85,-1.52 -0.58,-0.45 -0.94,0.09 -0.89,0.4 h -1.3 l -0.63,-0.8 0.63,-0.8 1.88,-0.09 0.27,-0.18 0.09,-0.63 v -1.79 l -0.31,-0.58 -0.22,-0.67 -0.67,-0.8 -0.78,-0.76 -1.03,-0.78 -1.47,-1.5 -0.87,-1.12 -1.18,-0.42 -1,-1.12 -1.38,-1.27 -1.12,-0.4 -1.12,-0.54 -0.98,-0.67 -0.89,-0.31 -0.36,-0.98 -0.8,-0.04 -0.4,-0.58 -1.65,-0.89 -0.94,-0.22 -0.78,-0.37 h -0.31 c 0,0 -0.09,0.28 -0.09,0.28 l 0.85,0.54 1.18,0.65 0.85,0.78 0.27,0.74 -0.58,0.42 -0.33,-1.16 -1.23,-0.38 -0.6,-0.49 h -0.76 l -0.22,-1.21 -0.25,-0.13 -0.49,-0.02 -2.68,-0.31 -0.18,-0.36 -1.07,-0.36 -0.04,-0.27 h 1.21 l 0.31,-0.49 -0.4,-0.71 -0.49,-0.36 -0.85,-0.4 -0.94,-0.45 -0.8,-0.76 -1.07,-0.4 -0.8,-0.54 -0.49,-0.31 -1.12,-0.36 -0.58,-0.31 -1.16,-0.36 -0.63,-0.58 -1.34,-0.27 -0.49,-0.4 -1.21,-0.36 -1.38,-0.67 -0.36,-0.49 -0.49,-0.49 -0.89,-0.27 -0.71,-0.54 -1.56,-0.49 -0.54,-0.4 -1.16,-0.13 -0.85,-0.45 -2.05,-1.03 -0.89,-0.27 -0.71,-0.85 -1.25,-0.45 -0.31,-0.76 -0.4,-0.49 -1.74,-0.13 -0.63,0.71 -0.31,0.85 -0.45,1.03 -0.04,2.77 -0.45,0.58 h -0.8 l -0.98,-0.85 -0.85,0.09 -0.58,0.8 -0.13,1.83 0.45,0.63 0.71,1.56 -0.4,2.59 -0.4,1.3 -0.13,1.7 -0.49,0.36 -1.12,0.04 0.13,0.71 0.54,0.58 0.8,0.71 0.58,0.54 0.27,0.8 0.94,0.89 -0.22,0.8 -1.07,-0.18 -0.54,-0.45 -1.3,-0.36 -0.54,-0.36 -0.94,-0.22 -0.85,-0.71 -1.65,-0.98 -1.3,-0.45 -1.88,-0.63 -2.59,-0.09 -0.18,-0.45 -0.63,-0.58 -1.12,-0.45 -0.85,-0.54 -1.38,-0.45 -0.85,-0.13 -1.46,-0.06 -0.82,-0.38 -0.51,-0.88 -0.25,-0.88 -0.82,-0.44 v -1.2 l 0.38,-0.63 0.38,-1.26 0.69,-0.82 0.44,-0.63 0.44,-3.54 -0.25,-3.22 -0.25,-0.63 -1.01,-0.44 -0.63,-0.44 -0.06,-1.2 -0.69,-0.44 -1.01,-0.63 -0.13,-1.26 -1.83,-0.32 -2.65,-0.19 -0.69,-0.38 -0.69,-0.82 h -0.88 l -1.52,-0.95 -0.95,-0.32 -1.96,-0.44 -0.44,-0.82 -0.76,-0.32 h -2.46 l -1.71,-0.51 -2.02,-0.82 -1.2,-0.44 -1.33,-0.44 -1.79,-0.99 -2.32,0.18 -0.89,-0.54 -3.31,-0.36 -1.43,-0.45 -3.31,-0.36 -1.16,-0.36 -3.39,-0.18 -0.89,-0.63 -2.5,-0.36 -1.88,-0.54 -1.56,-0.71 -1.3,-0.78 -0.58,-0.63 -1.79,-0.07 -1,0.54 -2.17,0.36 -2.5,-0.16 -0.38,-0.54 -2.79,-0.13 -0.87,-0.2 -1.38,-1.05 -1.59,-0.07 -0.78,-0.36 -0.85,0.49 -0.38,-0.54 -0.85,-0.27 0.09,-0.62 -0.54,-0.66 -0.22,-1.64 -0.06,-3.06 -0.32,-0.54 -0.32,-0.6 -0.95,-0.41 -0.51,-0.44 -0.54,-0.09 -0.73,0.6 -0.85,0.06 -0.6,0.63 -1.04,0.16 v 2.15 c 0,0 0.16,0.57 0.32,0.57 0.16,0 2.05,0.22 2.18,0.22 0.13,0 0.54,0.51 0.54,0.51 l -0.09,1.04 -0.35,0.32 -0.09,1.04 -0.88,-0.06 -0.44,-0.51 -1.8,-0.32 -1.39,-0.66 -2.87,-0.16 -0.79,-0.47 -2.16,0.02 -1.66,-0.24 -0.38,-0.51 h -1.96 l -1.29,-0.19 -1.93,-0.73 -0.57,-0.51 -2.12,-0.09 -0.54,-0.51 -1.42,-0.28 -1.23,-0.51 -1.83,-0.19 -0.57,-0.44 -1.55,-0.19 -0.44,-0.35 -0.57,-0.16 -1.01,-0.38 -0.28,-0.73 0.57,-0.51 0.57,-0.03 0.28,0.73 0.54,0.03 1.11,-0.06 1.64,0.19 0.92,0.18 0.85,0.18 0.63,-0.31 0.8,-0.31 0.98,-0.4 0.71,-0.27 -0.58,-0.63 -0.89,-0.4 -1.16,-0.31 -0.98,-0.54 h -4.56 l -0.76,-0.67 -2.1,-0.18 -0.85,0.49 -0.35,1.19 h -0.94 l -0.65,-0.32 -0.56,-0.78 -0.67,-0.31 -0.71,-0.54 -1.83,0.09 -1.52,0.18 -1.34,-0.49 -1.12,-0.54 -1.52,0.04 -0.09,0.36 0.76,0.67 h 2.1 l 0.94,0.45 h 1.38 l 0.8,0.76 v 0.27 l -0.54,0.31 -0.58,1.12 -1.79,-0.09 -0.45,-0.76 h -1.97 l -0.85,-0.31 -1.3,-0.58 -0.63,-0.76 -1.07,-0.31 -1.12,-0.71 -1.3,-0.31 -2.32,0.13 -2.5,0.04 -0.63,0.71 -1.07,0.18 -0.36,0.36 -1.25,0.27 -0.36,0.27 -0.71,0.36 -0.63,0.54 -0.89,0.36 -0.71,0.54 h -0.63 l -0.71,0.71 h -1.52 l -0.63,0.36 -0.98,0.36 -0.63,0.63 -0.45,0.89 h -0.98 l -0.98,0.36 -0.36,0.8 h -0.98 l -0.45,0.54 -0.45,0.8 -0.45,0.8 -0.63,0.09 0.27,1.34 0.45,0.36 -0.09,0.45 -0.54,0.54 -1.25,1.43 -1.43,0.09 -1.97,0.45 -4.2,0.09 -1.64,0.99 -2.21,0.79 -0.75,0.85 -1.23,0.28 -0.64,1.32 -0.3,1.32 -0.11,-0.07 -0.22,-0.96 -0.8,-0.16 -0.89,-0.54 -1.02,-0.73 c 0,0 -0.54,-0.67 -0.77,-0.67 -0.23,0 -1.28,-0.64 -1.4,-0.77 -0.13,-0.13 -1.37,-0.89 -1.37,-0.89 l -0.77,-0.67 -1.6,-0.77 -0.83,-0.86 -0.67,-1.31 -0.86,-1.21 -0.96,-1.44 c 0,0 0.19,-2.33 0.19,-2.55 0,-0.22 -0.8,-2.2 -0.8,-2.2 l -0.06,-1.79 -0.64,-0.93 c 0,0 -0.29,-1.79 -0.35,-1.91 -0.06,-0.12 -0.67,-0.61 -0.67,-0.61 l -0.67,-0.64 0.1,-0.41 0.93,0.26 0.99,0.7 1.4,0.13 0.73,-0.29 1.66,-0.45 1.6,0.13 -0.03,-1.53 -0.89,-0.61 v -0.99 h 1.79 l 0.64,-0.57 h 4.88 l 1.02,-0.8 4.37,-0.13 1.4,-0.99 1.21,-0.48 1.05,-0.86 1.12,-0.32 0.96,-1.05 0.48,-2.48 c 0,0 0.32,-0.27 0.36,-0.63 0.05,-0.36 0.23,-1.58 0.23,-1.58 l -0.68,-0.41 -1.13,-0.36 v -3.56 c 0,0 -0.63,0.09 -0.63,-0.63 0,-0.72 -0.09,-4.29 -0.09,-4.29 l 0.81,-1.31 0.18,-0.99 -0.86,-0.54 -0.09,-1.53 -0.45,-0.41 0.05,-1.71 -0.72,-0.68 -0.41,-0.99 -0.63,-1.04 -4.51,-0.23 -3.16,0.41 -0.63,0.45 -1.13,0.09 -0.63,0.54 -0.81,0.05 -0.36,-0.63 -0.59,-0.27 -0.18,-0.54 h -0.5 v -0.86 l 0.68,-0.23 0.09,-0.5 -1.13,0.09 -1.35,0.27 -0.81,0.59 -0.36,0.09 -0.77,0.63 -0.68,0.81 v 0.77 h 0.72 l 0.18,0.77 0.72,0.54 -0.14,0.36 -0.68,0.41 -1.35,-0.09 h -1.31 l -0.81,-0.81 h -0.68 c 0,0 -1.22,-0.45 -1.4,-0.45 -0.18,0 -0.36,-0.86 -0.36,-0.86 l -0.95,-1.4 -0.59,-1.4 0.09,-1.31 -0.74,-0.17 -0.18,-0.89 -0.32,-0.59 0.09,-3.04 0.03,-1.16 1.16,-0.8 0.71,0.18 0.89,0.36 0.89,-0.09 0.8,-1.07 1.07,-0.98 0.18,-2.05 c 0,0 0.09,-0.89 0.45,-1.07 0.36,-0.18 0.71,-0.89 1.43,-0.89 0.72,0 2.41,-0.18 2.41,-0.18 l 0.63,0.89 0.54,-1.07 0.45,-1.34 0.8,-0.71 0.54,-0.71 -0.54,-0.71 -0.98,-0.36 -0.36,-1.07 -1.25,-0.98 -1.61,-0.54 -1.16,-0.98 0.27,-2.5 1.16,-0.54 V 94.8 l 1.25,-0.89 h 1.79 l 0.45,0.54 1.07,-0.18 0.63,-1.88 0.71,-1.07 0.29,-0.42 -0.57,-0.79 v -2.05 l 0.47,-0.73 0.69,-0.44 0.35,-0.28 0.19,0.44 0.28,0.95 0.47,0.73 0.73,0.6 0.85,0.16 1.77,0.09 0.35,0.51 0.98,-0.03 0.25,-0.54 4.77,-0.03 0.6,0.76 h 0.73 l 0.19,-0.79 0.44,-0.6 1.61,0.03 0.66,0.47 1.14,0.41 0.32,0.63 0.35,1.17 h 1.52 l 1.01,-1.01 0.25,-1.26 0.25,-0.88 0.88,0.76 0.63,0.25 1.14,0.76 h 1.14 l 1.01,-0.76 h 3.03 l 2.4,0.25 0.13,0.63 0.63,0.38 v 1.14 l 0.76,0.88 1.01,0.76 0.51,0.38 0.38,0.76 0.88,0.51 0.25,2.4 0.76,0.76 0.13,0.88 0.63,0.88 -0.88,0.88 v 0.76 l 0.76,0.13 1.39,0.76 h 1.39 v 3.16 l 0.76,1.14 0.13,1.01 0.92,0.26 0.1,0.97 -0.67,0.38 -0.29,1.67 -0.47,0.38 -0.29,0.92 -0.45,0.22 0.07,0.96 0.58,0.29 0.83,0.07 0.09,-1.43 c 0,0 0.67,-0.54 0.71,-0.65 0.04,-0.11 0.67,-1.07 0.67,-1.07 l 0.8,0.25 0.42,0.98 0.74,0.69 0.69,0.96 0.13,1.45 -0.63,0.63 v 1.16 l 0.8,0.8 -0.18,2.32 0.71,0.27 0.36,0.98 0.45,0.89 v 1.07 l -0.63,0.27 -0.27,1.79 -1.16,0.36 -0.09,1.79 0.36,0.63 0.27,0.63 2.86,0.45 2.68,-0.54 0.45,-1.34 0.71,-1.97 0.45,-0.98 0.8,-0.71 h 0.54 l 0.27,-4.11 -0.89,-0.98 -0.27,-2.95 0.71,-2.32 0.45,-1.7 0.8,-0.89 1.34,-1.34 1.07,-0.8 1.97,-0.71 2.59,0.27 0.63,-0.89 0.71,-0.89 0.98,-0.45 0.09,-0.71 -0.98,-0.71 -0.71,-0.89 -1.16,-0.98 0.09,-2.95 0.8,-0.71 0.71,-1.34 h 5.09 l 0.71,0.36 h 2.95 c 0.36,0 1.97,-0.18 1.97,-0.18 l 0.54,-0.54 h 0.18 l 0.27,-1.16 1.02,-0.36 0.47,0.39 c 0,0 0.82,0.89 0.86,0.96 0.04,0.07 0.94,1.21 0.94,1.21 l 0.76,0.63 v 1.14 l 1.26,1.39 1.14,0.38 1.01,0.63 h 0.63 l 0.25,-0.73 0.95,-1.47 1.28,-0.06 2.3,-0.28 1.7,-1.25 1.16,-0.36 0.71,-0.8 0.71,-1.7 v -1.88 l -1.16,-0.71 -0.89,-1.25 -1.25,-1.7 v -2.23 l -0.71,-1.07 c 0,0 0,-3.48 0.09,-3.84 0.09,-0.36 -0.36,-1.43 -0.36,-1.43 l -0.98,-1.61 -0.71,-1.34 0.09,-1.61 0.71,-0.45 0.71,-0.18 v -1.16 l -0.89,-0.63 -0.18,-2.41 -0.8,-0.8 -1.43,-1.07 -0.89,-0.36 -0.63,-0.63 -0.54,-1.16 -1.07,-0.18 -1.16,-1.07 0.09,-2.5 h 1.79 l 0.54,-1.07 h 1.97 l 1.34,-0.63 1.43,-0.89 0.8,-0.54 0.36,-0.8 0.63,-0.54 0.71,-1.34 0.18,-0.89 0.63,-0.63 0.71,-1.07 0.18,-1.79 0.89,-1.79 0.45,-1.61 0.71,-1.25 1.25,-0.89 h 2.59 l 0.54,0.54 3.31,0.18 0.89,-0.54 2.41,-0.27 0.54,0.63 0.45,1.52 0.71,2.14 1.25,1.16 1.25,0.36 2.68,-0.18 0.45,-0.63 0.54,-0.18 0.54,1.25 0.54,0.71 0.4,0.05 0.6,-0.84 c 0,0 0.55,-0.98 0.63,-1.03 0.08,-0.05 1.23,-1.25 1.23,-1.25 l 3.22,-0.28 1.03,0.88 1.12,1.59 1.17,0.54 0.25,2.74 0.54,0.27 v 2.23 l 0.89,0.09 1.88,0.09 0.36,0.45 v 0.71 l -0.8,0.27 -0.71,0.45 0.36,0.8 h 1.16 l 1.16,0.36 0.27,0.98 0.63,2.32 0.36,0.45 0.45,0.89 0.45,0.8 -0.09,4.29 V 74 l 0.45,0.54 0.27,0.98 h 0.27 l 0.63,-1.61 0.45,-1.25 4.56,-0.54 0.8,-0.89 2.77,0.27 1.48,0.69 0.32,1.39 1.04,1.26 1.2,0.98 1.55,0.63 1.99,0.28 0.6,1.99 -0.82,2.05 -0.82,1.14 v 2.68 l 1.61,2.18 1.26,1.77 0.38,1.14 1.39,0.63 2.91,1.39 1.89,0.51 3.54,0.51 3.41,-0.51 1.52,-1.64 1.52,-0.25 0.38,-1.26 1.39,-1.52 1.01,-0.76 2.02,-1.26 1.14,-0.25 0.63,-0.51 3.41,-0.25 1.64,-0.51 1.39,-1.77 -0.13,-3.66 -1.01,-0.88 -0.25,-2.53 h 1.89 l 2.4,-0.76 2.65,-1.01 1.39,-0.38 h 5.05 l 1.01,1.01 1.52,1.26 1.01,0.63 v 1.52 l -1.14,0.25 -1.01,0.88 -0.25,1.01 -1.26,0.51 -0.25,1.52 1.14,0.25 3.28,0.13 3.03,0.76 1.01,0.51 h 3.03 l 0.76,-0.76 0.38,-1.77 0.51,-2.53 0.76,-1.14 0.63,0.25 1.26,0.38 1.77,0.38 1.52,1.01 v 1.39 l 0.76,1.52 1.39,0.63 1.26,1.26 0.88,0.76 1.64,1.14 1.52,1.77 1.52,1.52 1.17,1.52 0.6,0.57 0.79,-0.6 1.04,-1.04 0.73,-0.82 0.51,-0.44 1.86,-0.25 0.92,-0.82 1.64,0.57 1.48,1.11 1.64,2.08 1.26,0.28 0.69,-3.06 1.2,-3.28 1.13,0.32 0.36,1.34 1.88,0.27 0.89,-1.61 0.8,-4.47 1.07,-0.09 0.89,1.07 1.43,0.98 1.07,0.45 0.54,1.16 0.27,2.41 -1.34,0.63 v 2.5 l 0.98,1.52 1.16,0.54 1.34,0.27 1.43,0.98 1.52,0.98 0.63,1.16 1.43,0.36 3.13,0.63 3.39,-1.25 h 1.52 l 1.16,1.07 1.16,0.45 1.7,0.71 1.52,1.34 1.16,0.71 -0.36,0.45 -0.36,0.98 v 1.43 l -0.89,0.36 0.18,2.32 0.89,0.45 1.52,0.8 0.89,0.54 0.27,1.7 0.71,0.45 0.09,1.07 0.45,0.36 0.36,1.88 -0.27,2.68 -0.98,0.63 0.27,2.95 -0.89,0.71 v 0.8 l -0.54,1.25 -0.71,0.63 -0.18,3.13 0.36,2.86 0.18,2.14 0.71,0.27 v 1.25 l -0.98,-0.36 -0.98,0.63 -1.16,0.98 -2.41,0.09 -0.98,-0.89 -1.16,-1.25 -1.16,0.27 -0.18,1.07 v 0.63 l 0.04,3.62 -0.89,3.17 -1.3,2.5 -0.45,0.8 -0.31,3.48 -0.8,2.68 -2.95,0.94 -0.76,1.52 -0.58,1.43 -0.67,0.8 -0.45,0.71 -0.09,1.88 0.18,2.28 0.71,0.94 0.49,0.45 c 0,0 0.8,-0.58 0.98,-0.67 0.18,-0.09 1.65,-0.49 1.83,-0.58 0.18,-0.09 1.34,-0.89 1.34,-0.89 l 1.83,-1.12 0.31,-0.49 2.28,-0.09 h 0.67 l 0.4,0.8 v 0.98 l -0.8,0.36 -0.18,2.1 0.18,0.67 0.22,0.4 0.98,0.54 0.94,0.53 v 0 z m -205.18,-3.88 -0.71,-0.58 -0.4,0.04 -0.71,0.89 -0.09,0.63 -0.58,0.04 -0.54,0.8 -0.67,0.63 h -2.23 l -1.38,0.04 -0.8,-0.8 h -1.88 l -0.8,-0.67 h -0.98 l -0.22,0.31 0.85,0.27 0.67,0.54 1.34,0.22 0.94,0.09 0.54,0.4 1.03,0.04 1.38,0.09 0.39,0.24 1.45,-0.06 0.75,-0.63 0.49,-1.03 0.76,0.04 0.27,-1.21 1.16,-0.36 v 0 z m 2.41,2.21 1.17,0.03 1.17,0.63 1.48,0.19 1.39,0.54 1.39,0.41 1.8,0.51 1.48,0.41 1.07,0.28 2.31,0.51 1.33,0.6 1.58,0.51 0.95,0.25 -0.19,0.22 h -1.23 l -2.02,-0.6 -1.42,-0.57 -1.99,-0.63 -1.36,-0.25 c 0,0 -1.52,-0.35 -1.64,-0.41 -0.13,-0.06 -1.26,-0.69 -1.26,-0.69 l -2.18,-0.35 -1.36,-0.66 h -2.31 l -0.16,-0.92 v 0 z m 20.99,5.38 2.05,0.27 2.18,0.49 2.68,0.46 1.86,0.77 -0.05,0.58 c 0,0 -0.49,0 -0.71,-0.16 -0.22,-0.16 -1.93,-0.71 -1.93,-0.71 l -1.86,-0.51 -1.89,-0.55 -2.29,-0.33 -0.05,-0.32 v 0 z"
           style="fill:#6cb700;fill-rule:evenodd;stroke:#000000;stroke-linejoin:round" />
      </g>
      <g
         id="layer6"
         transform="matrix(0.26458333,0,0,0.26458333,-71.130311,-5.4052115)">
        <path
           id="Provincia_di_La_Spezia"
           class="cls-2"
           d="m 729.78,162.16 0.64,-1.45 0.47,-1.55 0.38,-1.36 0.47,-0.47 0.82,-0.13 0.38,-0.57 1.14,-0.13 0.41,-0.63 1.48,-0.03 0.73,-0.69 h 3.63 l 0.63,-0.54 3.47,-0.09 0.88,-0.79 1.71,-0.06 0.63,0.98 0.44,0.63 2.12,-0.13 0.19,-0.66 0.63,-0.66 0.82,-0.06 -0.03,-0.76 0.57,-0.66 0.16,-1.64 0.85,-0.66 0.41,-0.6 1.64,0.19 0.73,0.6 1.42,0.09 0.41,0.51 1.99,0.32 0.44,1.39 0.76,0.85 0.44,1.14 h 0.44 l 0.54,-0.92 0.6,-0.57 0.92,-0.03 0.41,-0.76 0.69,-0.57 0.22,-0.82 H 766 l 0.13,-0.79 h 1.11 l 0.73,0.47 0.63,0.44 0.35,2.18 0.25,0.35 2.16,1.98 1.61,0.89 0.63,0.18 1.97,1.61 1.07,0.18 1.34,1.52 1.07,0.63 4.47,0.18 0.18,1.16 1.07,1.52 1.25,1.43 0.54,1.52 -0.18,3.04 0.71,0.45 0.09,3.57 1.16,0.8 0.13,2.9 0.71,2.05 0.49,1.56 1.56,0.18 0.49,-0.63 2.1,-0.18 4.38,0.04 2.32,0.49 c 0,0 0.58,0.71 0.85,0.85 0.27,0.14 0.54,1.21 0.85,1.43 0.31,0.22 0.76,1.25 0.76,1.25 v 2.05 l 0.71,1.92 0.63,2.05 c 0,0 1.3,3.31 1.52,3.48 0.22,0.17 0.4,1.88 0.4,1.88 l 3.04,0.36 0.8,0.54 3.31,2.01 1.7,1.92 1.43,1.61 0.76,1.56 0.04,2.5 0.45,0.76 1.43,1.21 2.59,0.18 0.94,1.16 1.12,0.27 c 0,0 1.07,1.07 1.25,1.07 0.18,0 0.13,0.89 0.13,0.89 l 1.74,1.07 1.12,0.45 1.61,1.25 0.18,0.89 h 1.47 l 0.31,-0.94 0.85,-0.22 0.27,-0.45 h 0.63 l 0.49,0.94 1.16,1.3 1.21,0.09 0.45,0.67 h 2.72 l 0.4,2.37 1.07,0.31 0.45,0.63 2.86,0.4 0.36,0.54 0.58,0.63 0.76,3.53 0.27,2.19 0.4,0.45 0.98,0.54 -0.04,2.81 -0.58,0.27 -0.45,3.39 -0.49,0.45 0.65,1.43 0.74,0.63 0.33,0.67 0.65,0.63 2.08,0.13 c 0,0 0.85,0.71 0.94,0.76 0.09,0.05 0.58,0.63 0.67,0.67 0.09,0.04 0.07,0.47 0.07,0.47 l -0.71,0.27 -0.78,1.41 -0.8,2.01 -0.11,2.48 -0.54,0.4 -0.74,1.54 -0.69,1.21 -0.31,2.41 -0.56,0.6 -0.13,0.74 0.22,0.67 c 0,0 0.65,2.05 0.74,2.19 0.09,0.14 0.25,1.25 0.25,1.25 l 0.65,1.34 0.45,-0.02 0.4,-0.54 0.31,-0.51 0.31,-0.96 0.74,-1.54 0.58,-1.97 0.45,-1.3 0.71,-0.67 1.45,-1.12 0.71,-0.92 h 0.92 l 1.09,-1.03 c 0,0 0.07,-0.94 0.07,-1.03 0,-0.09 0.67,-0.71 0.67,-0.71 h 0.6 l 0.13,-0.65 1.97,-0.4 1.63,0.33 0.04,1.59 0.6,1.05 0.36,0.42 1.19,1.51 0.72,0.43 0.37,-0.87 3.32,0.1 0.3,0.46 1,0.78 0.06,0.45 -1.6,0.32 -1.45,2.02 -0.57,1.33 -1.64,0.69 -0.51,1.52 -1.77,2.27 -1.2,0.13 -1.64,1.33 -1.52,1.77 -0.57,0.44 0.13,0.82 0.51,0.76 0.57,0.88 0.82,-0.06 0.19,-0.76 0.38,-0.06 0.95,-0.51 0.63,-0.32 1.01,-0.82 h 1.07 l 0.69,-0.57 h 1.64 c 0.51,0 0.82,0.82 0.82,0.82 l 0.95,0.63 1.33,0.44 0.82,-1.01 1.07,-0.38 h 3.66 l 0.82,1.01 0.69,0.69 1.14,-0.19 1.33,-1.45 0.82,-0.88 1.14,0.13 0.63,1.2 1.39,0.51 0.76,1.77 0.76,0.88 -1.01,0.88 0.38,3.28 0.63,1.01 -0.13,1.26 -1.01,1.01 0.51,1.99 0.51,0.88 0.16,1.14 0.85,1.67 0.35,0.54 0.19,1.29 0.57,0.25 1.29,1.17 1.71,0.28 0.25,4.99 -0.19,1.55 -0.95,0.54 -0.63,0.57 -1.61,0.41 -0.44,0.47 0.16,1.01 0.82,0.73 1.2,0.51 0.32,0.54 c 0,0 0.38,0.69 0.51,0.79 0.13,0.09 0.51,0.09 0.51,0.09 l 0.06,-1.67 0.79,-0.63 0.6,-0.82 0.13,-1.2 0.51,-0.35 -0.09,-2.05 1.2,-1.01 0.95,-0.57 0.22,-0.82 0.38,-1.04 1.11,-0.57 0.63,-0.35 1.45,-0.44 h 4.26 l 0.69,0.51 1.42,0.16 0.28,0.44 1.83,0.32 0.47,1.67 1.67,0.51 0.73,0.41 1.45,1.67 -0.06,0.82 1.45,1.2 0.69,0.69 0.38,1.64 0.69,0.38 -0.09,0.6 -0.63,0.25 -0.19,0.82 -0.38,1.26 -0.88,1.77 -1.77,1.39 -1.26,1.01 -0.63,1.89 -0.63,0.51 -1.64,0.38 -0.76,1.01 -2.4,2.4 c 0,0 -2.21,2.24 -2.34,2.24 -0.13,0 -0.69,1.71 -0.69,1.71 l -0.6,1.23 -0.82,1.58 -0.54,0.92 -2.4,-1.26 -1.71,-0.69 -0.19,-0.69 -0.6,-0.25 -0.35,0.66 -2.91,-0.13 -0.76,1.64 -1.39,1.26 -1.01,2.15 -0.51,0.88 -0.38,1.01 -1.52,-0.13 -0.88,-0.76 h -2.27 l -1.01,-0.76 -1.77,-2.27 -2.53,-2.15 -1.77,-2.02 -3.16,-1.01 -1.26,-0.76 -0.13,-2.15 -1.26,-0.38 -0.76,-0.63 -1.52,-0.88 -1.14,-1.01 -0.51,-3.79 -1.14,-0.38 -0.76,-1.14 -2.78,0.63 -1.26,0.25 -3.54,-0.25 -0.51,-2.27 -1.26,-0.25 -1.48,-0.88 -0.51,-0.47 -0.82,-0.13 -0.19,-1.39 -0.57,-0.54 -0.63,-1.58 -0.63,-0.57 -0.66,-1.74 -0.35,-1.11 -0.44,-1.04 h -1.36 l -0.32,0.98 -0.28,1.36 h -1.01 l -0.44,-1.86 0.16,-0.82 h -2.08 l -0.47,0.69 -0.92,1.07 -1.33,1.45 -0.51,0.69 0.57,0.44 0.25,1.2 -0.82,-0.06 -0.57,0.44 -0.19,0.76 h -0.95 l -0.51,-0.32 -0.57,-0.69 -0.06,-0.69 0.19,-1.33 -0.06,-0.95 -1.52,0.13 -0.44,0.76 0.06,0.88 0.82,1.52 0.82,0.38 0.76,1.01 0.57,0.69 0.76,1.45 0.13,1.01 1.2,1.26 0.38,2.21 0.69,0.88 1.64,1.33 c 0,0 0.38,1.01 0.57,1.26 0.19,0.25 0.88,0.69 0.88,0.69 l 0.63,1.39 0.63,0.51 -0.06,1.64 -0.76,0.44 -0.25,1.01 -0.51,0.95 -0.51,0.63 -0.69,0.82 -0.44,0.25 -0.38,-0.44 -0.35,-0.44 -1.8,-1.42 -1.11,-1.39 -1.42,-0.51 -1.58,-0.69 -1.01,-0.69 -0.16,-0.35 -0.69,-0.35 -0.44,0.98 -1.07,-0.25 -1.36,-0.57 -0.73,-0.69 -0.28,-1.14 -1.04,-0.35 -0.66,-1.29 -1.26,-0.76 -1.39,-0.13 -0.88,-0.51 -1.52,-0.51 -0.51,-1.26 -0.38,-1.39 h -1.89 l -0.88,-0.38 -0.38,-1.39 -1.14,-0.38 -2.27,-0.51 -1.64,-1.14 -1.64,-1.26 v -0.76 l -1.26,-0.88 -0.76,-2.02 -0.88,-1.14 -0.38,-2.02 -0.88,-1.26 -0.38,-1.01 -1.64,-0.25 -1.52,-0.63 -1.26,-0.38 -1.39,-0.51 -1.26,-1.14 -0.88,-0.51 -1.52,-1.64 -1.52,-0.25 -0.54,-1.49 -0.36,-1.61 -2.32,-1.27 -1.65,-0.94 -2.48,-0.36 -0.56,-0.69 -3.1,-0.07 -2.12,0.49 c 0,0 -0.67,1.88 -0.76,2.1 -0.09,0.22 -0.63,1.32 -0.63,1.32 l -0.58,1.5 -0.45,-0.02 -0.11,-0.85 -0.76,-0.25 -0.76,-1.14 -1.01,-0.76 -1.26,-0.63 -0.76,-0.63 v -1.14 l -0.63,-0.51 -0.76,-0.76 v -0.88 l -1.01,-0.51 -0.13,-1.01 -1.01,-0.88 -0.38,-2.27 0.51,-2.02 0.76,-0.63 -0.51,-0.63 -1.26,-0.25 -0.25,-0.76 -4.85,-0.25 -1.85,-1.94 -0.79,-0.62 -0.11,-1.03 -0.28,-0.58 -1.34,0.14 -0.56,0.61 -0.89,-0.63 -0.89,-0.27 v -2.14 l 0.8,-0.45 -0.27,-1.25 -0.18,-0.8 -0.36,-0.89 -0.89,-0.09 -0.18,0.8 h -0.89 l -0.27,-0.8 -1.52,-1.07 -0.18,-1.25 -0.45,-0.45 -1.25,-0.54 -2.32,-0.54 -2.73,-0.87 -1.23,-0.32 c 0,0 -0.73,-0.85 -0.81,-0.93 -0.08,-0.08 -1.37,-0.55 -1.44,-0.58 -0.07,-0.03 -0.63,-0.9 -0.63,-0.9 0,0 -0.95,-0.43 -1.01,-0.46 -0.06,-0.03 -0.52,-0.25 -0.52,-0.25 l -0.86,-0.41 0.81,-1.03 0.82,-0.83 0.82,-0.69 0.87,-0.71 0.65,-0.89 0.54,-0.54 0.31,-0.22 0.22,-2.37 -0.63,-0.63 -0.89,-0.76 -0.04,-0.85 0.63,-0.58 0.31,-0.85 0.58,-0.63 0.18,-0.71 0.4,-0.09 0.36,-1.34 0.36,-0.27 0.22,-1.83 0.63,-0.36 0.31,-0.45 0.85,-0.27 2.1,-0.4 1.03,0.04 0.54,-0.67 2.14,-0.09 0.94,0.18 0.54,0.58 0.94,0.18 0.54,0.63 0.85,0.04 0.4,0.8 h 0.27 l 0.31,-1.7 -0.18,-4.56 -0.58,-2.32 -1.16,-0.18 c 0,0 -0.09,-0.89 -0.27,-1.07 -0.18,-0.18 -1.21,-0.31 -1.34,-0.49 -0.13,-0.18 -0.8,-0.71 -0.8,-0.71 l -0.67,-0.58 -0.63,-1.21 0.04,-2.32 -0.67,-0.8 -0.45,-1.34 -1.07,-0.36 -1.21,-0.71 -0.98,-0.54 -0.85,-0.85 -0.71,-0.09 -1.34,-1.07 -0.85,-0.94 -1.03,-0.36 -1.34,-1.43 -0.27,-1.88 -0.76,-1.38 -1.12,-1.03 -1.25,-1.16 -0.36,-0.54 -0.89,-0.27 -0.67,-0.8 -1.43,-0.31 -0.67,-0.58 v -0.94 l 0.54,-0.36 0.22,-3.89 0.71,-0.85 1.16,-0.85 1.16,-0.36 0.22,-0.71 0.36,-0.45 0.49,-1.03 0.58,-1.47 0.36,-0.36 -0.18,-1.16 -0.54,-0.67 -1.16,-0.76 -0.71,-0.27 -1.07,-0.89 -0.58,-0.58 -0.98,-0.36 -0.49,-0.58 -0.71,-0.63 -0.71,-1.25 0.04,-3.93 -0.63,-0.54 -0.09,-0.89 -0.71,-0.54 -0.49,0.27 -0.45,0.36 -0.63,0.58 -0.76,0.13 -0.54,-0.54 -1.12,-0.54 -0.63,-0.27 c 0,0 -0.54,-0.67 -0.85,-0.94 -0.31,-0.27 -0.54,-0.54 -0.54,-0.54 l 0.11,-0.36 0.92,-0.09 0.31,-1.07 c 0,0 0,-1.38 -0.13,-1.47 -0.13,-0.09 -0.67,-0.58 -0.67,-0.58 l -0.89,-0.58 -0.29,-1.47 c 0,0 -0.38,-0.31 -0.38,-0.4 v -0.49 l 0.47,-0.54 0.71,-0.49 c 0,0 0.96,-0.38 1.05,-0.47 0.09,-0.09 0.85,-0.69 0.85,-0.69 l 0.62,-0.75 z m 109.19,153.27 1.2,-0.51 1.83,-0.19 1.26,-0.63 1.71,-0.19 1.58,-0.32 v 0.76 l -0.82,0.69 -0.13,1.45 -0.88,0.82 0.13,1.71 -0.19,0.82 -0.69,0.76 v 1.2 h -0.88 c 0,0 -0.25,-0.51 -0.44,-0.76 -0.19,-0.25 -0.51,-1.14 -0.51,-1.14 l -0.95,-0.76 c 0,0 -0.13,-1.14 -0.44,-1.26 -0.32,-0.13 -1.01,-0.69 -1.01,-0.69 l -0.69,-0.95 -0.06,-0.82 v 0 z m 4.55,7.45 1.33,-0.13 0.25,0.76 h 1.2 l 0.25,1.33 -0.63,0.06 -0.38,1.33 -0.44,0.06 -0.25,-1.14 -0.38,-0.32 -0.32,-0.63 -0.63,-0.32 v -1.01 0 z"
           style="fill:#6cb700;fill-rule:evenodd;stroke:#000000;stroke-linejoin:round" />
      </g>
    </g>
    <g
       id="g25"
       transform="translate(10.865854,2.7595819)">
      <path
         style="fill:url(#radialGradient11);fill-opacity:1;stroke-width:0.264583"
         id="path3"
         sodipodi:type="arc"
         sodipodi:cx="86.236938"
         sodipodi:cy="92.445992"
         sodipodi:rx="33.632404"
         sodipodi:ry="33.632404"
         sodipodi:start="0"
         sodipodi:end="1.5707963"
         sodipodi:arc-type="slice"
         d="M 119.86934,92.445992 A 33.632404,33.632404 0 0 1 86.236938,126.0784 V 92.445992 Z" />
      <path
         style="fill:url(#radialGradient13);fill-opacity:1;stroke-width:0.264583"
         id="path4"
         sodipodi:type="arc"
         sodipodi:cx="92.445992"
         sodipodi:cy="-86.236938"
         sodipodi:rx="33.632404"
         sodipodi:ry="33.632404"
         sodipodi:start="0"
         sodipodi:end="1.5707963"
         sodipodi:arc-type="slice"
         d="M 126.0784,-86.236938 A 33.632404,33.632404 0 0 1 92.445992,-52.604534 V -86.236938 Z"
         transform="rotate(90)" />
      <path
         style="fill:url(#radialGradient7);stroke-width:0.264583"
         id="path5"
         sodipodi:type="arc"
         sodipodi:cx="-86.236938"
         sodipodi:cy="-92.445992"
         sodipodi:rx="33.632404"
         sodipodi:ry="33.632404"
         sodipodi:start="0"
         sodipodi:end="1.5707963"
         sodipodi:arc-type="slice"
         d="m -52.604534,-92.445992 a 33.632404,33.632404 0 0 1 -33.632404,33.632405 v -33.632405 z"
         transform="scale(-1)" />
      <path
         style="fill:url(#radialGradient9);fill-opacity:1;stroke-width:0.264583"
         id="path6"
         sodipodi:type="arc"
         sodipodi:cx="-92.445992"
         sodipodi:cy="86.236938"
         sodipodi:rx="33.632404"
         sodipodi:ry="33.632404"
         sodipodi:start="0"
         sodipodi:end="1.5707963"
         sodipodi:arc-type="slice"
         d="M -58.813587,86.236938 A 33.632404,33.632404 0 0 1 -92.445992,119.86934 V 86.236938 Z"
         transform="rotate(-90)" />
      <path
         id="path24"
         style="opacity:1;fill:url(#radialGradient25);fill-opacity:1;stroke-width:0.264583"
         d="M 86.237113,58.468783 A 33.804882,33.804882 0 0 0 52.431942,92.273437 33.804882,33.804882 0 0 0 86.237113,126.07861 33.804882,33.804882 0 0 0 120.04177,92.273437 33.804882,33.804882 0 0 0 86.237113,58.468783 Z m 0,2.759521 A 31.0453,31.0453 0 0 1 117.28225,92.273437 31.0453,31.0453 0 0 1 86.237113,123.31857 31.0453,31.0453 0 0 1 55.191463,92.273437 31.0453,31.0453 0 0 1 86.237113,61.228304 Z" />
    </g>
  </g>
</svg>
