<?xml version="1.0" encoding="UTF-8" standalone="no"?>
<!-- Created with Inkscape (http://www.inkscape.org/) -->

<svg
   width="16"
   height="16"
   viewBox="0 0 16 16"
   version="1.1"
   id="svg1"
   xml:space="preserve"
   inkscape:export-filename="update-32.png"
   inkscape:export-xdpi="192"
   inkscape:export-ydpi="192"
   sodipodi:docname="update.svg"
   inkscape:version="1.3.2 (091e20e, 2023-11-25, custom)"
   xmlns:inkscape="http://www.inkscape.org/namespaces/inkscape"
   xmlns:sodipodi="http://sodipodi.sourceforge.net/DTD/sodipodi-0.dtd"
   xmlns="http://www.w3.org/2000/svg"
   xmlns:svg="http://www.w3.org/2000/svg"><sodipodi:namedview
     id="namedview1"
     pagecolor="#505050"
     bordercolor="#ffffff"
     borderopacity="1"
     inkscape:showpageshadow="0"
     inkscape:pageopacity="0"
     inkscape:pagecheckerboard="1"
     inkscape:deskcolor="#505050"
     inkscape:document-units="px"
     inkscape:zoom="38.54361"
     inkscape:cx="6.7326335"
     inkscape:cy="8.4968689"
     inkscape:window-width="1920"
     inkscape:window-height="1057"
     inkscape:window-x="-8"
     inkscape:window-y="-8"
     inkscape:window-maximized="1"
     inkscape:current-layer="layer1" /><defs
     id="defs1" /><g
     inkscape:label="Livello 1"
     inkscape:groupmode="layer"
     id="layer1"><g
       id="g2"
       transform="matrix(0.53818346,0,0,0.53818346,0.46543156,0.46543156)"
       style="fill:#ffffff;fill-opacity:1;stroke:#000000;stroke-opacity:1">
	<g
   id="reload"
   style="fill:#ffffff;fill-opacity:1;stroke:#000000;stroke-opacity:1">
		<g
   id="g1"
   style="fill:#ffffff;fill-opacity:1;stroke:#000000;stroke-opacity:1">
			<path
   style="fill:#ffffff;fill-opacity:1;stroke:#000000;stroke-opacity:1"
   d="m 22,16 c 0,4.41 -3.586,8 -8,8 C 9.586,24 6,20.41 6,16 6,11.59 9.586,8 14,8 l 2.359,0.027 -1.164,1.164 2.828,2.828 L 24.035,6 18.023,0 15.195,2.828 16.375,4 H 14 C 7.375,4 2,9.371 2,16 c 0,6.629 5.375,12 12,12 6.625,0 12,-5.371 12,-12 z"
   id="path1" />
		</g>
	</g>
</g></g></svg>
